<svg width="50" height="51" viewBox="0 0 50 51" fill="none" xmlns="http://www.w3.org/2000/svg">
<path d="M24.9805 4.72363C12.9053 4.71875 3.125 14.4941 3.125 26.5596C3.125 36.1006 9.24316 44.2109 17.7637 47.1895C18.9111 47.4775 18.7354 46.6621 18.7354 46.1055V42.3213C12.1094 43.0977 11.8408 38.7129 11.3965 37.9805C10.498 36.4473 8.37402 36.0566 9.00879 35.3242C10.5176 34.5479 12.0557 35.5195 13.8379 38.1514C15.127 40.0605 17.6416 39.7383 18.916 39.4209C19.1943 38.2734 19.79 37.248 20.6104 36.4521C13.7451 35.2217 10.8838 31.0322 10.8838 26.0518C10.8838 23.6348 11.6797 21.4131 13.2422 19.6211C12.2461 16.667 13.335 14.1377 13.4814 13.7617C16.3184 13.5078 19.2676 15.793 19.4971 15.9736C21.1084 15.5391 22.9492 15.3096 25.0098 15.3096C27.0801 15.3096 28.9258 15.5488 30.5518 15.9883C31.1035 15.5684 33.8379 13.6055 36.4746 13.8447C36.6162 14.2207 37.6807 16.6914 36.7432 19.6064C38.3252 21.4033 39.1309 23.6445 39.1309 26.0664C39.1309 31.0566 36.25 35.251 29.3652 36.4619C29.9549 37.0418 30.4232 37.7335 30.7426 38.4964C31.062 39.2593 31.2262 40.0782 31.2256 40.9053V46.3984C31.2646 46.8379 31.2256 47.2725 31.958 47.2725C40.6055 44.3574 46.8311 36.1885 46.8311 26.5645C46.8311 14.4941 37.0459 4.72363 24.9805 4.72363Z" fill="white"/>
</svg>
