<svg width="50" height="50" viewBox="0 0 50 50" fill="none" xmlns="http://www.w3.org/2000/svg">
<path d="M24.9805 3.72534C12.9053 3.72046 3.125 13.4959 3.125 25.5613C3.125 35.1023 9.24316 43.2126 17.7637 46.1912C18.9111 46.4792 18.7354 45.6638 18.7354 45.1072V41.323C12.1094 42.0994 11.8408 37.7146 11.3965 36.9822C10.498 35.449 8.37402 35.0583 9.00879 34.3259C10.5176 33.5496 12.0557 34.5212 13.8379 37.1531C15.127 39.0623 17.6416 38.74 18.916 38.4226C19.1943 37.2751 19.79 36.2498 20.6104 35.4539C13.7451 34.2234 10.8838 30.0339 10.8838 25.0535C10.8838 22.6365 11.6797 20.4148 13.2422 18.6228C12.2461 15.6687 13.335 13.1394 13.4814 12.7634C16.3184 12.5095 19.2676 14.7947 19.4971 14.9753C21.1084 14.5408 22.9492 14.3113 25.0098 14.3113C27.0801 14.3113 28.9258 14.5505 30.5518 14.99C31.1035 14.5701 33.8379 12.6072 36.4746 12.8464C36.6162 13.2224 37.6807 15.6931 36.7432 18.6082C38.3252 20.405 39.1309 22.6462 39.1309 25.0681C39.1309 30.0584 36.25 34.2527 29.3652 35.4636C29.9549 36.0436 30.4232 36.7352 30.7426 37.4981C31.062 38.261 31.2262 39.0799 31.2256 39.907V45.4001C31.2646 45.8396 31.2256 46.2742 31.958 46.2742C40.6055 43.3591 46.8311 35.1902 46.8311 25.5662C46.8311 13.4959 37.0459 3.72534 24.9805 3.72534Z" fill="#3A407C"/>
</svg>
