<svg width="1439" height="1191" viewBox="0 0 1439 1191" fill="none" xmlns="http://www.w3.org/2000/svg">
<g opacity="0.05">
<path d="M656.662 733.249H252.211V1179.36H656.662V733.249Z" fill="#B2B0BE"/>
<path d="M1177.27 418.153H1178.26V416.651L1178.4 416.4L1178.26 416.233V413.73H1143.18V418.069H1143.97L1158.97 440.183L1145.03 461.128H1143.71V465.468H1177.87V461.128H1176.88L1162.67 440.183L1177.27 418.153ZM1147.61 418.153H1173.57L1160.69 437.513L1147.61 418.153ZM1173.04 461.295H1148.66L1160.75 443.104L1173.04 461.295Z" fill="#B2B0BE"/>
<path d="M1177.27 465.801H1178.26V464.299L1178.4 464.049L1178.26 463.882V461.379H1143.18V465.718H1143.97L1158.97 487.831L1145.03 508.777H1143.71V513.116H1177.87V508.777H1176.88L1162.67 487.831L1177.27 465.801ZM1147.61 465.801H1173.57L1160.69 485.161L1147.61 465.801ZM1173.04 508.86H1148.66L1160.75 490.669L1173.04 508.86Z" fill="#B2B0BE"/>
<path d="M1177.27 513.366H1178.26V511.864L1178.4 511.613L1178.26 511.447V508.943H1143.18V513.282H1143.97L1158.97 535.396L1145.03 556.341H1143.71V560.68H1177.87V556.508H1176.88L1162.67 535.563L1177.27 513.366ZM1147.61 513.366H1173.57L1160.69 532.726L1147.61 513.366ZM1173.04 556.508H1148.66L1160.75 538.316L1173.04 556.508Z" fill="#B2B0BE"/>
<path d="M1177.27 561.015H1178.26V559.512L1178.4 559.262L1178.26 559.095V556.592H1143.18V560.931H1143.97L1158.97 583.044L1145.03 603.99H1143.71V608.329H1177.87V604.073H1176.88L1162.67 583.128L1177.27 561.015ZM1147.61 561.015H1173.57L1160.69 580.374L1147.61 561.015ZM1173.04 604.073H1148.66L1160.75 585.882L1173.04 604.073Z" fill="#B2B0BE"/>
<path d="M1177.27 608.579H1178.26V607.077L1178.4 606.827L1178.26 606.66V604.157H1143.18V608.496H1143.97L1158.97 630.609L1145.03 651.555H1143.71V655.894H1177.87V651.555H1176.88L1162.67 630.609L1177.27 608.579ZM1147.61 608.579H1173.57L1160.69 627.939L1147.61 608.579ZM1173.04 651.721H1148.66L1160.75 633.53L1173.04 651.721Z" fill="#B2B0BE"/>
<path d="M1177.27 656.227H1178.26V654.725L1178.4 654.475L1178.26 654.308V651.805H1143.18V656.144H1143.97L1158.97 678.257L1145.03 699.203H1143.71V703.542H1177.87V699.203H1176.88L1162.67 678.257L1177.27 656.227ZM1147.61 656.227H1173.57L1160.69 675.587L1147.61 656.227ZM1173.04 699.286H1148.66L1160.75 681.095L1173.04 699.286Z" fill="#B2B0BE"/>
<path d="M1177.27 703.792H1178.26V702.29L1178.4 702.039L1178.26 701.873V699.369H1143.18V703.708H1143.97L1158.97 725.822L1145.03 746.767H1143.71V751.106H1177.87V746.767H1176.88L1162.67 725.822L1177.27 703.792ZM1147.61 703.792H1173.57L1160.69 723.152L1147.61 703.792ZM1173.04 746.934H1148.66L1160.75 728.743L1173.04 746.934Z" fill="#B2B0BE"/>
<path d="M1177.27 751.44H1178.26V749.938L1178.4 749.688L1178.26 749.521V747.018H1143.18V751.357H1143.97L1158.97 773.47L1145.03 794.415H1143.71V798.755H1177.87V794.415H1176.88L1162.67 773.47L1177.27 751.44ZM1147.61 751.44H1173.57L1160.69 770.8L1147.61 751.44ZM1173.04 794.499H1148.66L1160.75 776.307L1173.04 794.499Z" fill="#B2B0BE"/>
<path d="M1177.27 799.005H1178.26V797.503L1178.4 797.253L1178.26 797.086V794.583H1143.18V798.922H1143.97L1158.97 821.035L1145.03 841.98H1143.71V846.319H1177.87V841.98H1176.88L1162.67 821.035L1177.27 799.005ZM1147.61 799.005H1173.57L1160.69 818.365L1147.61 799.005ZM1173.04 842.147H1148.66L1160.75 823.956L1173.04 842.147Z" fill="#B2B0BE"/>
<path d="M1177.27 846.654H1178.26V845.152L1178.4 844.901L1178.26 844.734V842.231H1143.18V846.57H1143.97L1158.97 868.684L1145.03 889.629H1143.71V893.968H1177.87V889.629H1176.88L1162.67 868.684L1177.27 846.654ZM1147.61 846.654H1173.57L1160.69 866.013L1147.61 846.654ZM1173.04 889.712H1148.66L1160.75 871.521L1173.04 889.712Z" fill="#B2B0BE"/>
<path d="M1177.27 894.218H1178.26V892.716L1178.4 892.465L1178.26 892.298V889.795H1143.18V894.134H1143.97L1158.97 916.248L1145.03 937.193H1143.71V941.533H1177.87V937.193H1176.88L1162.67 916.248L1177.27 894.218ZM1147.61 894.218H1173.57L1160.69 913.578L1147.61 894.218ZM1173.04 937.36H1148.66L1160.75 919.168L1173.04 937.36Z" fill="#B2B0BE"/>
<path d="M1177.27 941.867H1178.26V940.365L1178.4 940.114L1178.26 939.947V937.444H1143.18V941.783H1143.97L1158.97 963.897L1145.03 984.842H1143.71V989.181H1177.87V984.842H1176.88L1162.67 963.897L1177.27 941.867ZM1147.61 941.867H1173.57L1160.69 961.226L1147.61 941.867ZM1173.04 984.925H1148.66L1160.75 966.734L1173.04 984.925Z" fill="#B2B0BE"/>
<path d="M1177.27 989.431H1178.26V987.929L1178.4 987.679L1178.26 987.512V985.008H1143.18V989.348H1143.97L1158.97 1011.46L1145.03 1032.41H1143.71V1036.75H1177.87V1032.41H1176.88L1162.67 1011.46L1177.27 989.431ZM1147.61 989.431H1173.57L1160.69 1008.79L1147.61 989.431ZM1173.04 1032.57H1148.66L1160.75 1014.38L1173.04 1032.57Z" fill="#B2B0BE"/>
<path d="M1177.27 1037.08H1178.26V1035.58L1178.4 1035.33L1178.26 1035.16V1032.66H1143.18V1037H1143.97L1158.97 1059.11L1145.03 1080.05H1143.71V1084.39H1177.87V1080.05H1176.88L1162.67 1059.11L1177.27 1037.08ZM1147.61 1037.08H1173.57L1160.69 1056.44L1147.61 1037.08ZM1173.04 1080.14H1148.66L1160.75 1061.95L1173.04 1080.14Z" fill="#B2B0BE"/>
<path d="M1022.19 309.505H1024.18V305.5C1024.18 301.161 1026.95 297.656 1030.39 297.656C1033.82 297.656 1036.6 301.161 1036.6 305.5V309.505H1038.58V305.5C1038.58 299.825 1034.95 295.152 1030.39 295.152C1025.89 295.152 1022.19 299.742 1022.19 305.5V309.505Z" fill="#B2B0BE"/>
<path d="M1024.11 280.966V221.051C1024.11 216.378 1027.08 212.54 1030.72 212.54C1034.35 212.54 1037.32 216.378 1037.32 221.051V280.966C1037.32 285.639 1034.35 289.478 1030.72 289.478C1027.08 289.478 1024.11 285.639 1024.11 280.966ZM1025.96 221.051V280.966C1025.96 284.304 1028.07 287.058 1030.65 287.058C1033.23 287.058 1035.34 284.304 1035.34 280.966V221.051C1035.34 217.713 1033.23 214.96 1030.65 214.96C1028.07 214.96 1025.96 217.713 1025.96 221.051Z" fill="#B2B0BE"/>
<path d="M1028.39 300.29H1032.48V278.677H1028.39V300.29Z" fill="#B2B0BE"/>
<path d="M1027.41 228.979H1042.35C1044.13 228.979 1045.58 227.143 1045.58 224.89V163.723C1045.58 161.47 1044.13 159.634 1042.35 159.634H1027.41C1025.63 159.634 1024.18 161.47 1024.18 163.723V224.89C1024.18 227.143 1025.63 228.979 1027.41 228.979Z" fill="#B2B0BE"/>
<path d="M1142.45 123.835H1178.59V1120.19H1142.45V123.835ZM1175.82 127.424H1145.36V1116.6H1175.82V127.424Z" fill="#B2B0BE"/>
<path d="M1158.9 202.276L1144.7 223.221H1143.71V227.56H1177.87V223.221H1176.55L1162.6 202.276L1177.6 180.162H1178.4V175.823H1143.31V178.326L1143.18 178.493L1143.31 178.744V180.246H1144.3L1158.9 202.276ZM1160.82 199.522L1147.94 180.162H1173.9L1160.82 199.522ZM1160.75 205.029L1172.85 223.221H1148.46L1160.75 205.029Z" fill="#B2B0BE"/>
<path d="M1158.9 249.84L1144.7 270.786H1143.71V275.125H1177.87V270.786H1176.55L1162.6 249.84L1177.6 227.727H1178.4V223.388H1143.31V225.891L1143.18 226.058L1143.31 226.308V227.81H1144.3L1158.9 249.84ZM1160.82 247.087L1147.94 227.727H1173.9L1160.82 247.087ZM1160.75 252.678L1172.85 270.869H1148.46L1160.75 252.678Z" fill="#B2B0BE"/>
<path d="M1158.9 297.489L1144.7 318.434H1143.71V322.773H1177.87V318.434H1176.55L1162.6 297.489L1177.6 275.375H1178.4V271.036H1143.31V273.54L1143.18 273.706L1143.31 273.957V275.459H1144.3L1158.9 297.489ZM1160.82 294.735L1147.94 275.375H1173.9L1160.82 294.735ZM1160.75 300.243L1172.85 318.434H1148.46L1160.75 300.243Z" fill="#B2B0BE"/>
<path d="M1158.9 345.053L1144.7 365.999H1143.71V370.338H1177.87V365.999H1176.55L1162.6 345.053L1177.6 322.94H1178.4V318.684H1143.31V321.188L1143.18 321.355L1143.31 321.605V323.107H1144.3L1158.9 345.053ZM1160.82 342.3L1147.94 322.94H1173.9L1160.82 342.3ZM1160.75 347.891L1172.85 366.082H1148.46L1160.75 347.891Z" fill="#B2B0BE"/>
<path d="M1158.9 392.702L1144.7 413.647H1143.71V417.986H1177.87V413.647H1176.55L1162.6 392.702L1177.6 370.588H1178.4V366.249H1143.31V368.752L1143.18 368.919L1143.31 369.169V370.671H1144.3L1158.9 392.702ZM1160.82 389.948L1147.94 370.588H1173.9L1160.82 389.948ZM1160.75 395.455L1172.85 413.647H1148.46L1160.75 395.455Z" fill="#B2B0BE"/>
<path d="M1173.9 14.8538H1163.86C1162.27 14.8538 1161.02 16.4393 1161.02 18.442V123.835C1161.02 125.838 1162.27 127.424 1163.86 127.424H1173.9C1175.49 127.424 1176.74 125.838 1176.74 123.835V18.442C1176.74 16.4393 1175.49 14.8538 1173.9 14.8538ZM1166.7 18.442H1171.13C1172.71 18.442 1173.97 20.0275 1173.97 22.0302V51.2366C1173.97 53.2394 1172.71 54.8248 1171.13 54.8248H1166.7C1165.12 54.8248 1163.86 53.2394 1163.86 51.2366V22.0302C1163.86 20.0275 1165.12 18.442 1166.7 18.442ZM1166.7 58.9137H1171.13C1172.71 58.9137 1173.97 60.4992 1173.97 62.502V79.7755C1173.97 81.7782 1172.71 83.3637 1171.13 83.3637H1166.7C1165.12 83.3637 1163.86 81.7782 1163.86 79.7755V62.502C1163.86 60.4992 1165.12 58.9137 1166.7 58.9137ZM1171.06 123.835H1166.64C1165.05 123.835 1163.79 122.25 1163.79 120.247V91.0408C1163.79 89.0381 1165.05 87.4526 1166.64 87.4526H1171.06C1172.65 87.4526 1173.9 89.0381 1173.9 91.0408V120.247C1173.9 122.25 1172.65 123.835 1171.06 123.835Z" fill="#B2B0BE"/>
<path d="M942.506 165.726V132.848C942.506 127.59 945.876 123.334 950.039 123.334H1187.98C1188.51 123.334 1189.04 123.418 1189.56 123.585L1298.06 153.376C1301.5 154.294 1304.01 158.216 1304.01 162.722V165.809C1304.01 171.067 1300.64 175.323 1296.47 175.323H950.039C945.876 175.323 942.506 170.983 942.506 165.726ZM950.039 129.259C948.453 129.259 947.197 130.845 947.197 132.848V165.726C947.197 167.729 948.453 169.314 950.039 169.314H1296.47C1298.06 169.314 1299.32 167.729 1299.32 165.726V162.638C1299.32 160.969 1298.39 159.467 1297.07 159.134L1188.57 129.343C1188.37 129.259 1188.18 129.259 1187.98 129.259H950.039Z" fill="#B2B0BE"/>
<path d="M942.506 132.848V165.726C942.506 170.983 945.876 175.239 950.039 175.239H1296.47C1300.64 175.239 1304.01 170.983 1304.01 165.726V162.638C1304.01 158.216 1301.5 154.294 1298.06 153.292C1297.86 153.209 1189.7 123.585 1189.56 123.502C1187.98 123.085 1203.18 123.335 950.039 123.251C945.876 123.335 942.506 127.591 942.506 132.848ZM947.197 163.055C947.197 131.179 947.131 132.848 947.263 132.013L954.598 146.783C956.118 149.787 953.342 151.29 947.197 163.055ZM1193.46 130.845L1201.46 146.783C1202.91 149.787 1200.33 150.872 1192.14 166.393L1184.15 150.455C1183.62 149.454 1183.68 148.119 1184.21 147.117L1193.46 130.845ZM1187.98 169.314H1171.52L1178.26 157.548C1179.26 155.796 1181.3 155.879 1182.16 157.715L1187.98 169.314ZM986.777 150.455C985.323 147.451 987.9 146.283 996.093 130.845L1004.09 146.783C1004.62 147.785 1004.55 149.12 1004.02 150.121L994.772 166.393L986.777 150.455ZM985.257 139.69C984.266 141.443 982.218 141.359 981.359 139.524L976.271 129.26H991.204L985.257 139.69ZM1000.92 129.26H1015.85L1009.9 139.69C1008.91 141.443 1006.86 141.359 1006 139.524L1000.92 129.26ZM1011.42 150.455C1010.89 149.454 1010.96 148.119 1011.49 147.117L1020.74 130.845L1028.73 146.783C1029.26 147.785 1029.2 149.12 1028.67 150.121L1019.42 166.393L1011.42 150.455ZM1025.56 129.26H1040.5L1034.55 139.69C1033.56 141.443 1031.51 141.359 1030.65 139.524L1025.56 129.26ZM1036.14 150.455C1034.68 147.451 1037.26 146.283 1045.45 130.845L1053.45 146.783C1054.9 149.787 1052.32 150.956 1044.13 166.393L1036.14 150.455ZM1050.21 129.26H1065.14L1059.2 139.69C1058.2 141.443 1056.16 141.359 1055.3 139.524L1050.21 129.26ZM1060.78 150.455C1059.33 147.451 1061.91 146.283 1070.1 130.845L1078.09 146.783C1078.62 147.785 1078.56 149.12 1078.03 150.121L1068.78 166.393L1060.78 150.455ZM1074.92 129.26H1089.86L1083.91 139.69C1082.92 141.443 1080.87 141.359 1080.01 139.524L1074.92 129.26ZM1085.43 150.455C1084.9 149.454 1084.97 148.119 1085.49 147.117L1094.74 130.845L1102.74 146.783C1103.27 147.785 1103.2 149.12 1102.67 150.121L1093.42 166.393L1085.43 150.455ZM1099.57 129.26H1114.5L1108.55 139.69C1107.56 141.443 1105.52 141.359 1104.66 139.524L1099.57 129.26ZM1110.14 150.455C1109.61 149.454 1109.68 148.119 1110.21 147.117L1119.46 130.845L1127.45 146.783C1127.98 147.785 1127.91 149.12 1127.39 150.121L1118.14 166.393L1110.14 150.455ZM1124.21 129.26H1139.15L1133.2 139.69C1132.21 141.443 1130.16 141.359 1129.3 139.524L1124.21 129.26ZM1134.79 150.455C1134.26 149.454 1134.32 148.119 1134.85 147.117L1144.1 130.845L1152.1 146.783C1153.55 149.787 1150.98 150.956 1142.78 166.393L1134.79 150.455ZM1148.93 129.26H1163.86L1157.91 139.69C1156.92 141.443 1154.87 141.359 1154.01 139.524L1148.93 129.26ZM1176.74 146.783C1177.27 147.785 1177.21 149.12 1176.68 150.121L1167.43 166.393L1159.43 150.455C1158.9 149.454 1158.97 148.119 1159.5 147.117L1168.75 130.845L1176.74 146.783ZM1163.33 169.314H1146.88L1153.62 157.548C1154.61 155.796 1156.66 155.879 1157.52 157.715L1163.33 169.314ZM1138.62 169.314H1122.17L1128.91 157.548C1129.9 155.796 1131.95 155.879 1132.8 157.715L1138.62 169.314ZM1113.97 169.314H1097.52L1104.26 157.548C1105.25 155.796 1107.3 155.879 1108.16 157.715L1113.97 169.314ZM1089.33 169.314H1072.87L1079.61 157.548C1080.6 155.796 1082.65 155.879 1083.51 157.715L1089.33 169.314ZM1064.61 169.314H1048.16L1054.9 157.548C1055.89 155.796 1057.94 155.879 1058.8 157.715L1064.61 169.314ZM1039.97 169.314H1023.51L1030.25 157.548C1031.25 155.796 1033.29 155.879 1034.15 157.715L1039.97 169.314ZM1015.32 169.314H998.869L1005.61 157.548C1006.6 155.796 1008.65 155.879 1009.51 157.715L1015.32 169.314ZM990.609 169.314H974.156L980.896 157.548C981.887 155.796 983.936 155.879 984.795 157.715L990.609 169.314ZM962.064 147.117L971.381 130.762C978.319 145.865 980.962 147.284 979.31 150.205L969.994 166.56C963.056 151.456 960.479 149.954 962.064 147.117ZM960.479 139.69C959.487 141.443 957.439 141.359 956.58 139.524L951.492 129.26H966.425L960.479 139.69ZM1188.51 129.343L1182.63 139.69C1181.63 141.443 1179.59 141.359 1178.73 139.524L1173.64 129.26C1188.77 129.343 1187.91 129.26 1188.51 129.343ZM1209.78 135.184L1207.21 139.69C1206.21 141.443 1204.17 141.359 1203.31 139.524L1199.74 132.431L1209.78 135.184ZM1221.94 138.522L1226.04 146.783C1227.56 149.787 1224.85 150.956 1216.72 166.393L1208.73 150.455C1208.2 149.454 1208.26 148.119 1208.79 147.117L1214.74 136.603L1221.94 138.522ZM1230.46 140.859C1229.8 141.026 1229.14 140.859 1228.61 140.358L1230.46 140.859ZM1250.55 146.366C1250.55 146.45 1251.81 148.202 1250.68 150.121L1241.43 166.393L1233.44 150.455C1232.91 149.454 1232.98 148.119 1233.5 147.117L1236.15 142.444L1250.55 146.366ZM1273.81 152.792L1266.08 166.393C1258.15 149.954 1257.49 150.288 1257.75 148.369L1273.81 152.792ZM1296.47 169.314H1291.98C1291.78 168.146 1291.85 168.73 1285.57 155.963L1297.07 159.133C1300.11 159.968 1299.12 164.724 1299.32 165.726C1299.32 167.728 1297.99 169.314 1296.47 169.314ZM1270.24 169.314L1276.92 157.548C1277.91 155.796 1279.96 155.879 1280.81 157.715L1286.63 169.397H1270.24V169.314ZM1245.53 169.314L1252.27 157.548C1253.26 155.796 1255.31 155.879 1256.17 157.715L1261.98 169.397H1245.53V169.314ZM1220.88 169.314L1227.56 157.548C1228.55 155.796 1230.6 155.879 1231.46 157.715L1237.27 169.397H1220.88V169.314ZM1196.24 169.314L1202.98 157.548C1203.97 155.796 1206.02 155.879 1206.88 157.715L1212.69 169.397H1196.24V169.314ZM950.039 169.314C949.84 169.314 949.642 169.314 949.51 169.231L956.184 157.465C957.175 155.712 959.223 155.796 960.082 157.631L965.897 169.314H950.039Z" fill="#B2B0BE"/>
<path d="M1271.37 282.969H1276.06C1277.64 282.969 1278.96 281.3 1278.96 279.297V176.908C1278.96 174.905 1277.64 173.236 1276.06 173.236H1271.37C1269.78 173.236 1268.46 174.905 1268.46 176.908V279.297C1268.46 281.3 1269.78 282.969 1271.37 282.969Z" fill="#B2B0BE"/>
<path d="M1227.03 208.368H1287.69C1290.4 208.368 1292.58 205.614 1292.58 202.192V191.261C1292.58 187.839 1290.4 185.086 1287.69 185.086H1227.03C1224.32 185.086 1222.14 187.839 1222.14 191.261V202.192C1222.14 205.614 1224.32 208.368 1227.03 208.368Z" fill="#B2B0BE"/>
<path d="M1227.03 235.07H1287.69C1290.4 235.07 1292.58 232.316 1292.58 228.895V217.964C1292.58 214.542 1290.4 211.789 1287.69 211.789H1227.03C1224.32 211.789 1222.14 214.542 1222.14 217.964V228.895C1222.14 232.316 1224.32 235.07 1227.03 235.07Z" fill="#B2B0BE"/>
<path d="M1227.03 260.939H1287.69C1290.4 260.939 1292.58 258.185 1292.58 254.764V243.832C1292.58 240.411 1290.4 237.657 1287.69 237.657H1227.03C1224.32 237.657 1222.14 240.411 1222.14 243.832V254.764C1222.14 258.185 1224.32 260.939 1227.03 260.939Z" fill="#B2B0BE"/>
<path d="M1227.03 288.894H1287.69C1290.4 288.894 1292.58 286.14 1292.58 282.719V271.787C1292.58 268.366 1290.4 265.612 1287.69 265.612H1227.03C1224.32 265.612 1222.14 268.366 1222.14 271.787V282.719C1222.14 286.14 1224.32 288.894 1227.03 288.894Z" fill="#B2B0BE"/>
<path d="M1294.56 158.132C1295.22 158.132 1295.88 157.798 1296.34 157.131C1297.2 155.879 1297.14 154.043 1296.14 152.959L1169.28 11.3491L971.976 122.918C970.787 123.585 970.258 125.338 970.787 126.84C971.315 128.342 972.703 129.009 973.892 128.342L1168.42 18.3587L1292.97 157.381C1293.43 157.882 1294.03 158.132 1294.56 158.132Z" fill="#B2B0BE"/>
<path d="M1167.69 18.5254H1169.61C1170.34 18.5254 1170.93 17.7744 1170.93 16.8565V1.66896C1170.93 0.75103 1170.34 0 1169.61 0H1167.69C1166.97 0 1166.37 0.75103 1166.37 1.66896V16.8565C1166.37 17.7744 1166.97 18.5254 1167.69 18.5254Z" fill="#B2B0BE"/>
<path d="M920.833 170.065H945.347V143.446H920.833C915.018 143.446 910.327 149.37 910.327 156.714C910.327 164.14 915.018 170.065 920.833 170.065Z" fill="#B2B0BE"/>
<path d="M928.828 189.174H928.961C931.868 189.174 934.181 186.17 934.181 182.582V162.972H923.608V182.582C923.608 186.254 925.921 189.174 928.828 189.174Z" fill="#B2B0BE"/>
<path d="M929.328 172.367L928.343 175.732L1027.81 222.18L1028.79 218.814L929.328 172.367Z" fill="#B2B0BE"/>
<path d="M1009.98 323H1048.63V308.23H1009.98V323Z" fill="#B2B0BE"/>
<path d="M1009.18 323.023H1048.89C1055.43 323.023 1060.78 329.783 1060.78 338.044V339.963H997.283V338.044C997.217 329.699 1002.57 323.023 1009.18 323.023Z" fill="#B2B0BE"/>
<path d="M996.688 339.964V384.023H1061.51V339.964H996.688ZM1005.48 347.14C1005.48 345.221 1006.73 343.635 1008.25 343.635H1048.76C1050.28 343.635 1051.53 345.221 1051.53 347.14V349.393C1051.53 351.312 1050.28 352.898 1048.76 352.898H1008.25C1006.73 352.898 1005.48 351.312 1005.48 349.393V347.14Z" fill="#B2B0BE"/>
<path d="M437.488 1187.95H364.607C362.889 1187.95 361.501 1186.2 361.501 1184.03V471.642C361.501 468.638 364.012 466.803 366.06 468.221L438.876 519.458C439.867 520.125 440.462 521.46 440.462 522.879V1184.11C440.528 1186.2 439.14 1187.95 437.488 1187.95Z" fill="#D8D7DF"/>
<path d="M566.336 1187.95H471.055C469.337 1187.95 467.949 1186.2 467.949 1184.03V599.066C467.949 596.896 469.337 595.144 471.055 595.144H566.336C568.054 595.144 569.442 596.896 569.442 599.066V1184.11C569.442 1186.2 568.054 1187.95 566.336 1187.95Z" fill="#D8D7DF"/>
<path d="M525.832 595.144H482.354C480.636 595.144 479.248 593.392 479.248 591.222V531.14C479.248 528.971 480.636 527.218 482.354 527.218H525.832C527.55 527.218 528.937 528.971 528.937 531.14V591.222C528.871 593.392 527.484 595.144 525.832 595.144Z" fill="#D8D7DF"/>
<path d="M639.086 595.645H571.027C569.309 595.645 567.922 593.892 567.922 591.723V408.807C567.922 406.637 569.309 404.885 571.027 404.885H639.02C640.209 406.387 640.87 407.221 642.125 408.807V591.806C642.125 593.892 640.737 595.645 639.086 595.645Z" fill="#D8D7DF"/>
<path d="M860.968 242.831H779.893C778.704 244.333 778.043 245.167 776.788 246.753V438.931C776.788 441.101 775.4 442.853 773.682 442.853H751.547C749.829 442.853 748.441 441.101 748.441 438.931V278.629C748.441 276.46 747.054 274.707 745.336 274.707H693.532C691.814 274.707 690.427 276.46 690.427 278.629V1184.03C690.427 1186.2 691.814 1187.95 693.532 1187.95H871.342C873.06 1187.95 874.448 1186.2 874.448 1184.03V261.022C874.448 260.021 874.183 259.103 873.655 258.352L863.149 243.999C862.62 243.248 861.827 242.831 860.968 242.831Z" fill="#D8D7DF"/>
<path d="M1103 705.043V737.671C1103 739.841 1101.62 741.593 1099.9 741.593H1071.16C1069.44 741.593 1068.05 743.345 1068.05 745.515V1184.11C1068.05 1186.28 1069.44 1188.03 1071.16 1188.03H1208.26C1209.98 1188.03 1211.37 1186.28 1211.37 1184.11V705.043C1211.37 702.874 1209.98 701.121 1208.26 701.121H1105.98C1104.39 701.205 1103 702.957 1103 705.043Z" fill="#D8D7DF"/>
<path d="M874.514 285.389H776.788V305.833H874.514V285.389Z" fill="white"/>
<path d="M874.514 326.111H776.788V346.555H874.514V326.111Z" fill="white"/>
<path d="M874.514 366.833H776.788V387.277H874.514V366.833Z" fill="white"/>
<path d="M874.514 407.472H776.788V427.917H874.514V407.472Z" fill="white"/>
<path d="M874.514 448.194H776.788V468.639H874.514V448.194Z" fill="white"/>
<path d="M874.514 488.916H776.788V509.361H874.514V488.916Z" fill="white"/>
<path d="M874.514 529.638H776.788V550.083H874.514V529.638Z" fill="white"/>
<path d="M874.514 570.361H776.788V590.805H874.514V570.361Z" fill="white"/>
<path d="M874.514 610.999H776.788V631.443H874.514V610.999Z" fill="white"/>
<path d="M874.514 651.721H776.788V672.166H874.514V651.721Z" fill="white"/>
<path d="M874.514 692.443H776.788V712.887H874.514V692.443Z" fill="white"/>
<path d="M874.514 733.165H776.788V753.609H874.514V733.165Z" fill="white"/>
<path d="M874.514 773.888H776.788V794.332H874.514V773.888Z" fill="white"/>
<path d="M874.514 814.61H776.788V835.054H874.514V814.61Z" fill="white"/>
<path d="M874.514 855.248H776.788V875.692H874.514V855.248Z" fill="white"/>
<path d="M874.514 895.97H776.788V916.415H874.514V895.97Z" fill="white"/>
<path d="M874.514 936.693H776.788V957.137H874.514V936.693Z" fill="white"/>
<path d="M874.514 977.415H776.788V997.859H874.514V977.415Z" fill="white"/>
<path d="M874.514 1018.14H776.788V1038.58H874.514V1018.14Z" fill="white"/>
<path d="M874.514 1058.78H776.788V1079.22H874.514V1058.78Z" fill="white"/>
<path d="M874.514 1099.5H776.788V1119.94H874.514V1099.5Z" fill="white"/>
<path d="M393.614 496.426H379.011C377.293 496.426 375.906 494.674 375.906 492.504V446.191C375.906 444.021 377.293 442.269 379.011 442.269H393.614C395.332 442.269 396.72 444.021 396.72 446.191V492.504C396.72 494.674 395.332 496.426 393.614 496.426Z" fill="#D8D7DF"/>
<path d="M88.9381 671.999V625.018H29.2716V671.999H0V1187.95H122.571V671.999H88.9381Z" fill="#D9DAE6"/>
<path d="M735.358 688.521V606.827H679.26V712.137H650.187V587.467H561.579L540.831 608.663V1187.95H745.732V708.716L735.358 688.521Z" fill="#CDCCD4"/>
<path d="M994.574 710.635H856.013V1187.95H994.574V710.635Z" fill="#E7E8EC"/>
<path d="M966.293 668.577H895.923V710.718H966.293V668.577Z" fill="#E7E8EC"/>
<path d="M949.972 668.577H911.648V629.357H936.427C941.713 636.033 944.686 639.788 949.972 646.464V668.577Z" fill="#E7E8EC"/>
<path d="M1067.32 656.644V640.622H1047.43L1045.58 557.426L1043.73 640.622H1023.85V656.644C1018.76 658.814 1015.12 663.988 1015.12 669.996V1187.95H1075.91V669.996C1076.05 663.988 1072.48 658.814 1067.32 656.644Z" fill="#E7E8EC"/>
<path d="M844.185 1187.95H765.026V578.705C771.964 569.943 775.863 565.02 782.867 556.174H826.411C833.349 564.936 837.247 569.86 844.251 578.705V1187.95H844.185Z" fill="#CDCCD4"/>
<path d="M650.187 622.014H540.831V645.296H650.187V622.014Z" fill="#9A999F"/>
<path d="M650.187 656.978H540.831V680.26H650.187V656.978Z" fill="#9A999F"/>
<path d="M650.187 691.859H540.831V715.141H650.187V691.859Z" fill="#9A999F"/>
<path d="M650.187 726.823H540.831V750.105H650.187V726.823Z" fill="#9A999F"/>
<path d="M650.187 761.788H540.831V785.069H650.187V761.788Z" fill="#9A999F"/>
<path d="M650.187 796.668H540.831V819.95H650.187V796.668Z" fill="#9A999F"/>
<path d="M650.187 831.633H540.831V854.914H650.187V831.633Z" fill="#9A999F"/>
<path d="M650.187 866.597H540.831V889.879H650.187V866.597Z" fill="#9A999F"/>
<path d="M650.187 901.478H540.831V924.759H650.187V901.478Z" fill="#9A999F"/>
<path d="M650.187 936.443H540.831V959.724H650.187V936.443Z" fill="#9A999F"/>
<path d="M650.187 971.406H540.831V994.689H650.187V971.406Z" fill="#9A999F"/>
<path d="M650.187 1006.29H540.831V1029.57H650.187V1006.29Z" fill="#9A999F"/>
<path d="M650.187 1041.25H540.831V1064.53H650.187V1041.25Z" fill="#9A999F"/>
<path d="M650.187 1076.22H540.831V1099.5H650.187V1076.22Z" fill="#9A999F"/>
<path d="M650.187 1111.1H540.831V1134.38H650.187V1111.1Z" fill="#9A999F"/>
<path d="M650.187 1146.06H540.831V1169.34H650.187V1146.06Z" fill="#9A999F"/>
<path d="M986.512 1190.04H1125.47C1127.58 1190.04 1129.3 1187.87 1129.3 1185.2V659.064C1129.3 656.394 1127.58 654.224 1125.47 654.224H986.512C984.398 654.224 982.68 656.394 982.68 659.064V1185.2C982.68 1187.87 984.398 1190.04 986.512 1190.04Z" fill="#B2B0BE"/>
<path d="M985.984 1190.04H1087.61C1089.39 1190.04 1090.91 1188.2 1090.91 1185.86V658.396C1090.91 656.143 1089.46 654.224 1087.61 654.224H985.984C984.2 654.224 982.68 656.06 982.68 658.396V1185.86C982.68 1188.12 984.2 1190.04 985.984 1190.04Z" fill="#B2B0BE"/>
<path d="M1100.89 701.205H993.649C990.213 701.205 987.438 697.7 987.438 693.361V686.351C987.438 682.012 990.213 678.507 993.649 678.507H1100.89C1104.33 678.507 1107.1 682.012 1107.1 686.351V693.361C1107.1 697.7 1104.33 701.205 1100.89 701.205Z" fill="white"/>
<path d="M1100.89 735.585H993.649C990.213 735.585 987.438 732.08 987.438 727.741V720.731C987.438 716.392 990.213 712.887 993.649 712.887H1100.89C1104.33 712.887 1107.1 716.392 1107.1 720.731V727.741C1107.1 732.08 1104.33 735.585 1100.89 735.585Z" fill="white"/>
<path d="M1100.89 770.049H993.649C990.213 770.049 987.438 766.544 987.438 762.205V755.195C987.438 750.856 990.213 747.351 993.649 747.351H1100.89C1104.33 747.351 1107.1 750.856 1107.1 755.195V762.205C1107.1 766.544 1104.33 770.049 1100.89 770.049Z" fill="white"/>
<path d="M1100.89 804.512H993.649C990.213 804.512 987.438 801.008 987.438 796.668V789.659C987.438 785.319 990.213 781.815 993.649 781.815H1100.89C1104.33 781.815 1107.1 785.319 1107.1 789.659V796.668C1107.1 801.008 1104.33 804.512 1100.89 804.512Z" fill="white"/>
<path d="M1100.89 838.893H993.649C990.213 838.893 987.438 835.388 987.438 831.049V824.039C987.438 819.7 990.213 816.195 993.649 816.195H1100.89C1104.33 816.195 1107.1 819.7 1107.1 824.039V831.049C1107.1 835.388 1104.33 838.893 1100.89 838.893Z" fill="white"/>
<path d="M1100.89 873.357H993.649C990.213 873.357 987.438 869.852 987.438 865.513V858.503C987.438 854.164 990.213 850.659 993.649 850.659H1100.89C1104.33 850.659 1107.1 854.164 1107.1 858.503V865.513C1107.1 869.852 1104.33 873.357 1100.89 873.357Z" fill="white"/>
<path d="M1100.89 907.736H993.649C990.213 907.736 987.438 904.232 987.438 899.892V892.883C987.438 888.543 990.213 885.039 993.649 885.039H1100.89C1104.33 885.039 1107.1 888.543 1107.1 892.883V899.892C1107.1 904.232 1104.33 907.736 1100.89 907.736Z" fill="white"/>
<path d="M1100.89 942.2H993.649C990.213 942.2 987.438 938.695 987.438 934.356V927.347C987.438 923.007 990.213 919.503 993.649 919.503H1100.89C1104.33 919.503 1107.1 923.007 1107.1 927.347V934.356C1107.1 938.695 1104.33 942.2 1100.89 942.2Z" fill="white"/>
<path d="M1100.89 976.664H993.649C990.213 976.664 987.438 973.159 987.438 968.82V961.81C987.438 957.471 990.213 953.966 993.649 953.966H1100.89C1104.33 953.966 1107.1 957.471 1107.1 961.81V968.82C1107.1 973.159 1104.33 976.664 1100.89 976.664Z" fill="white"/>
<path d="M1100.89 1011.04H993.649C990.213 1011.04 987.438 1007.54 987.438 1003.2V996.189C987.438 991.85 990.213 988.345 993.649 988.345H1100.89C1104.33 988.345 1107.1 991.85 1107.1 996.189V1003.2C1107.1 1007.54 1104.33 1011.04 1100.89 1011.04Z" fill="white"/>
<path d="M1100.89 1045.51H993.649C990.213 1045.51 987.438 1042 987.438 1037.66V1030.65C987.438 1026.31 990.213 1022.81 993.649 1022.81H1100.89C1104.33 1022.81 1107.1 1026.31 1107.1 1030.65V1037.66C1107.1 1042 1104.33 1045.51 1100.89 1045.51Z" fill="white"/>
<path d="M1100.89 1079.89H993.649C990.213 1079.89 987.438 1076.38 987.438 1072.04V1065.03C987.438 1060.69 990.213 1057.19 993.649 1057.19H1100.89C1104.33 1057.19 1107.1 1060.69 1107.1 1065.03V1072.04C1107.1 1076.47 1104.33 1079.89 1100.89 1079.89Z" fill="white"/>
<path d="M1100.89 1114.35H993.649C990.213 1114.35 987.438 1110.85 987.438 1106.51V1099.5C987.438 1095.16 990.213 1091.65 993.649 1091.65H1100.89C1104.33 1091.65 1107.1 1095.16 1107.1 1099.5V1106.51C1107.1 1110.85 1104.33 1114.35 1100.89 1114.35Z" fill="white"/>
<path d="M1100.89 1148.81H993.649C990.213 1148.81 987.438 1145.31 987.438 1140.97V1133.96C987.438 1129.62 990.213 1126.12 993.649 1126.12H1100.89C1104.33 1126.12 1107.1 1129.62 1107.1 1133.96V1140.97C1107.1 1145.31 1104.33 1148.81 1100.89 1148.81Z" fill="white"/>
<path d="M1100.89 1183.19H993.649C990.213 1183.19 987.438 1179.69 987.438 1175.35V1168.34C987.438 1164 990.213 1160.5 993.649 1160.5H1100.89C1104.33 1160.5 1107.1 1164 1107.1 1168.34V1175.35C1107.1 1179.69 1104.33 1183.19 1100.89 1183.19Z" fill="white"/>
<path d="M331.701 1187.95H115.831C113.518 1187.95 111.602 1185.53 111.602 1182.61V603.238C111.602 600.317 113.518 597.897 115.831 597.897H331.701C334.013 597.897 335.93 600.317 335.93 603.238V1182.61C335.93 1185.61 334.013 1187.95 331.701 1187.95Z" fill="#C8C6D3"/>
<path d="M138.627 677.923H126.866C124.553 677.923 122.637 675.503 122.637 672.582V630.775C122.637 627.855 124.553 625.435 126.866 625.435H138.627C140.94 625.435 142.856 627.855 142.856 630.775V672.499C142.856 675.503 140.94 677.923 138.627 677.923Z" fill="white"/>
<path d="M173.251 677.923H170.409C168.097 677.923 166.181 675.503 166.181 672.582V630.775C166.181 627.855 168.097 625.435 170.409 625.435H173.251C175.563 625.435 177.48 627.855 177.48 630.775V672.499C177.48 675.503 175.563 677.923 173.251 677.923Z" fill="white"/>
<path d="M224.658 677.923H212.897C210.584 677.923 208.668 675.503 208.668 672.582V630.775C208.668 627.855 210.584 625.435 212.897 625.435H224.658C226.971 625.435 228.887 627.855 228.887 630.775V672.499C228.887 675.503 226.971 677.923 224.658 677.923Z" fill="white"/>
<path d="M311.349 677.923H299.588C297.275 677.923 295.359 675.503 295.359 672.582V630.775C295.359 627.855 297.275 625.435 299.588 625.435H311.349C313.662 625.435 315.578 627.855 315.578 630.775V672.499C315.578 675.503 313.728 677.923 311.349 677.923Z" fill="white"/>
<path d="M311.349 738.589H299.588C297.275 738.589 295.359 736.17 295.359 733.249V691.442C295.359 688.521 297.275 686.101 299.588 686.101H311.349C313.662 686.101 315.578 688.521 315.578 691.442V733.249C315.578 736.253 313.728 738.589 311.349 738.589Z" fill="white"/>
<path d="M311.349 799.339H299.588C297.275 799.339 295.359 796.919 295.359 793.998V752.191C295.359 749.271 297.275 746.851 299.588 746.851H311.349C313.662 746.851 315.578 749.271 315.578 752.191V793.998C315.578 797.002 313.728 799.339 311.349 799.339Z" fill="white"/>
<path d="M311.349 860.089H299.588C297.275 860.089 295.359 857.669 295.359 854.748V812.941C295.359 810.02 297.275 807.6 299.588 807.6H311.349C313.662 807.6 315.578 810.02 315.578 812.941V854.748C315.578 857.669 313.728 860.089 311.349 860.089Z" fill="white"/>
<path d="M311.349 920.838H299.588C297.275 920.838 295.359 918.418 295.359 915.497V873.69C295.359 870.77 297.275 868.35 299.588 868.35H311.349C313.662 868.35 315.578 870.77 315.578 873.69V915.497C315.578 918.418 313.728 920.838 311.349 920.838Z" fill="white"/>
<path d="M311.349 981.587H299.588C297.275 981.587 295.359 979.167 295.359 976.247V934.44C295.359 931.519 297.275 929.099 299.588 929.099H311.349C313.662 929.099 315.578 931.519 315.578 934.44V976.247C315.578 979.167 313.728 981.587 311.349 981.587Z" fill="white"/>
<path d="M311.349 1042.34H299.588C297.275 1042.34 295.359 1039.92 295.359 1037V995.189C295.359 992.268 297.275 989.848 299.588 989.848H311.349C313.662 989.848 315.578 992.268 315.578 995.189V1037C315.578 1039.92 313.728 1042.34 311.349 1042.34Z" fill="white"/>
<path d="M311.349 1103.09H299.588C297.275 1103.09 295.359 1100.67 295.359 1097.74V1055.94C295.359 1053.02 297.275 1050.6 299.588 1050.6H311.349C313.662 1050.6 315.578 1053.02 315.578 1055.94V1097.74C315.578 1100.67 313.728 1103.09 311.349 1103.09Z" fill="white"/>
<path d="M311.349 1163.84H299.588C297.275 1163.84 295.359 1161.42 295.359 1158.49V1116.69C295.359 1113.77 297.275 1111.35 299.588 1111.35H311.349C313.662 1111.35 315.578 1113.77 315.578 1116.69V1158.49C315.578 1161.42 313.728 1163.84 311.349 1163.84Z" fill="white"/>
<path d="M259.282 677.923H256.44C254.128 677.923 252.212 675.503 252.212 672.582V630.775C252.212 627.855 254.128 625.435 256.44 625.435H259.282C261.594 625.435 263.511 627.855 263.511 630.775V672.499C263.511 675.503 261.594 677.923 259.282 677.923Z" fill="white"/>
<path d="M224.658 738.589H212.897C210.584 738.589 208.668 736.17 208.668 733.249V691.442C208.668 688.521 210.584 686.101 212.897 686.101H224.658C226.971 686.101 228.887 688.521 228.887 691.442V733.249C228.887 736.253 226.971 738.589 224.658 738.589Z" fill="white"/>
<path d="M259.282 738.589H256.44C254.128 738.589 252.212 736.17 252.212 733.249V691.442C252.212 688.521 254.128 686.101 256.44 686.101H259.282C261.594 686.101 263.511 688.521 263.511 691.442V733.249C263.511 736.253 261.594 738.589 259.282 738.589Z" fill="white"/>
<path d="M224.658 799.339H212.897C210.584 799.339 208.668 796.919 208.668 793.998V752.191C208.668 749.271 210.584 746.851 212.897 746.851H224.658C226.971 746.851 228.887 749.271 228.887 752.191V793.998C228.887 797.002 226.971 799.339 224.658 799.339Z" fill="white"/>
<path d="M259.282 799.339H256.44C254.128 799.339 252.212 796.919 252.212 793.998V752.191C252.212 749.271 254.128 746.851 256.44 746.851H259.282C261.594 746.851 263.511 749.271 263.511 752.191V793.998C263.511 797.002 261.594 799.339 259.282 799.339Z" fill="white"/>
<path d="M224.658 860.089H212.897C210.584 860.089 208.668 857.669 208.668 854.748V812.941C208.668 810.02 210.584 807.6 212.897 807.6H224.658C226.971 807.6 228.887 810.02 228.887 812.941V854.748C228.887 857.669 226.971 860.089 224.658 860.089Z" fill="white"/>
<path d="M259.282 860.089H256.44C254.128 860.089 252.212 857.669 252.212 854.748V812.941C252.212 810.02 254.128 807.6 256.44 807.6H259.282C261.594 807.6 263.511 810.02 263.511 812.941V854.748C263.511 857.669 261.594 860.089 259.282 860.089Z" fill="white"/>
<path d="M224.658 920.838H212.897C210.584 920.838 208.668 918.418 208.668 915.497V873.69C208.668 870.77 210.584 868.35 212.897 868.35H224.658C226.971 868.35 228.887 870.77 228.887 873.69V915.497C228.887 918.418 226.971 920.838 224.658 920.838Z" fill="white"/>
<path d="M259.282 920.838H256.44C254.128 920.838 252.212 918.418 252.212 915.497V873.69C252.212 870.77 254.128 868.35 256.44 868.35H259.282C261.594 868.35 263.511 870.77 263.511 873.69V915.497C263.511 918.418 261.594 920.838 259.282 920.838Z" fill="white"/>
<path d="M224.658 981.587H212.897C210.584 981.587 208.668 979.167 208.668 976.247V934.44C208.668 931.519 210.584 929.099 212.897 929.099H224.658C226.971 929.099 228.887 931.519 228.887 934.44V976.247C228.887 979.167 226.971 981.587 224.658 981.587Z" fill="white"/>
<path d="M259.282 981.587H256.44C254.128 981.587 252.212 979.167 252.212 976.247V934.44C252.212 931.519 254.128 929.099 256.44 929.099H259.282C261.594 929.099 263.511 931.519 263.511 934.44V976.247C263.511 979.167 261.594 981.587 259.282 981.587Z" fill="white"/>
<path d="M224.658 1042.34H212.897C210.584 1042.34 208.668 1039.92 208.668 1037V995.189C208.668 992.268 210.584 989.848 212.897 989.848H224.658C226.971 989.848 228.887 992.268 228.887 995.189V1037C228.887 1039.92 226.971 1042.34 224.658 1042.34Z" fill="white"/>
<path d="M259.282 1042.34H256.44C254.128 1042.34 252.212 1039.92 252.212 1037V995.189C252.212 992.268 254.128 989.848 256.44 989.848H259.282C261.594 989.848 263.511 992.268 263.511 995.189V1037C263.511 1039.92 261.594 1042.34 259.282 1042.34Z" fill="white"/>
<path d="M224.658 1103.09H212.897C210.584 1103.09 208.668 1100.67 208.668 1097.74V1055.94C208.668 1053.02 210.584 1050.6 212.897 1050.6H224.658C226.971 1050.6 228.887 1053.02 228.887 1055.94V1097.74C228.887 1100.67 226.971 1103.09 224.658 1103.09Z" fill="white"/>
<path d="M259.282 1103.09H256.44C254.128 1103.09 252.212 1100.67 252.212 1097.74V1055.94C252.212 1053.02 254.128 1050.6 256.44 1050.6H259.282C261.594 1050.6 263.511 1053.02 263.511 1055.94V1097.74C263.511 1100.67 261.594 1103.09 259.282 1103.09Z" fill="white"/>
<path d="M224.658 1163.84H212.897C210.584 1163.84 208.668 1161.42 208.668 1158.49V1116.69C208.668 1113.77 210.584 1111.35 212.897 1111.35H224.658C226.971 1111.35 228.887 1113.77 228.887 1116.69V1158.49C228.887 1161.42 226.971 1163.84 224.658 1163.84Z" fill="white"/>
<path d="M259.282 1163.84H256.44C254.128 1163.84 252.212 1161.42 252.212 1158.49V1116.69C252.212 1113.77 254.128 1111.35 256.44 1111.35H259.282C261.594 1111.35 263.511 1113.77 263.511 1116.69V1158.49C263.511 1161.42 261.594 1163.84 259.282 1163.84Z" fill="white"/>
<path d="M138.627 738.589H126.866C124.553 738.589 122.637 736.17 122.637 733.249V691.442C122.637 688.521 124.553 686.101 126.866 686.101H138.627C140.94 686.101 142.856 688.521 142.856 691.442V733.249C142.856 736.253 140.94 738.589 138.627 738.589Z" fill="white"/>
<path d="M173.251 738.589H170.409C168.097 738.589 166.181 736.17 166.181 733.249V691.442C166.181 688.521 168.097 686.101 170.409 686.101H173.251C175.563 686.101 177.48 688.521 177.48 691.442V733.249C177.48 736.253 175.563 738.589 173.251 738.589Z" fill="white"/>
<path d="M138.627 799.339H126.866C124.553 799.339 122.637 796.919 122.637 793.998V752.191C122.637 749.271 124.553 746.851 126.866 746.851H138.627C140.94 746.851 142.856 749.271 142.856 752.191V793.998C142.856 797.002 140.94 799.339 138.627 799.339Z" fill="white"/>
<path d="M173.251 799.339H170.409C168.097 799.339 166.181 796.919 166.181 793.998V752.191C166.181 749.271 168.097 746.851 170.409 746.851H173.251C175.563 746.851 177.48 749.271 177.48 752.191V793.998C177.48 797.002 175.563 799.339 173.251 799.339Z" fill="white"/>
<path d="M138.627 860.089H126.866C124.553 860.089 122.637 857.669 122.637 854.748V812.941C122.637 810.02 124.553 807.6 126.866 807.6H138.627C140.94 807.6 142.856 810.02 142.856 812.941V854.748C142.856 857.669 140.94 860.089 138.627 860.089Z" fill="white"/>
<path d="M173.251 860.089H170.409C168.097 860.089 166.181 857.669 166.181 854.748V812.941C166.181 810.02 168.097 807.6 170.409 807.6H173.251C175.563 807.6 177.48 810.02 177.48 812.941V854.748C177.48 857.669 175.563 860.089 173.251 860.089Z" fill="white"/>
<path d="M138.627 920.838H126.866C124.553 920.838 122.637 918.418 122.637 915.497V873.69C122.637 870.77 124.553 868.35 126.866 868.35H138.627C140.94 868.35 142.856 870.77 142.856 873.69V915.497C142.856 918.418 140.94 920.838 138.627 920.838Z" fill="white"/>
<path d="M173.251 920.838H170.409C168.097 920.838 166.181 918.418 166.181 915.497V873.69C166.181 870.77 168.097 868.35 170.409 868.35H173.251C175.563 868.35 177.48 870.77 177.48 873.69V915.497C177.48 918.418 175.563 920.838 173.251 920.838Z" fill="white"/>
<path d="M138.627 981.587H126.866C124.553 981.587 122.637 979.167 122.637 976.247V934.44C122.637 931.519 124.553 929.099 126.866 929.099H138.627C140.94 929.099 142.856 931.519 142.856 934.44V976.247C142.856 979.167 140.94 981.587 138.627 981.587Z" fill="white"/>
<path d="M173.251 981.587H170.409C168.097 981.587 166.181 979.167 166.181 976.247V934.44C166.181 931.519 168.097 929.099 170.409 929.099H173.251C175.563 929.099 177.48 931.519 177.48 934.44V976.247C177.48 979.167 175.563 981.587 173.251 981.587Z" fill="white"/>
<path d="M138.627 1042.34H126.866C124.553 1042.34 122.637 1039.92 122.637 1037V995.189C122.637 992.268 124.553 989.848 126.866 989.848H138.627C140.94 989.848 142.856 992.268 142.856 995.189V1037C142.856 1039.92 140.94 1042.34 138.627 1042.34Z" fill="white"/>
<path d="M173.251 1042.34H170.409C168.097 1042.34 166.181 1039.92 166.181 1037V995.189C166.181 992.268 168.097 989.848 170.409 989.848H173.251C175.563 989.848 177.48 992.268 177.48 995.189V1037C177.48 1039.92 175.563 1042.34 173.251 1042.34Z" fill="white"/>
<path d="M138.627 1103.09H126.866C124.553 1103.09 122.637 1100.67 122.637 1097.74V1055.94C122.637 1053.02 124.553 1050.6 126.866 1050.6H138.627C140.94 1050.6 142.856 1053.02 142.856 1055.94V1097.74C142.856 1100.67 140.94 1103.09 138.627 1103.09Z" fill="white"/>
<path d="M173.251 1103.09H170.409C168.097 1103.09 166.181 1100.67 166.181 1097.74V1055.94C166.181 1053.02 168.097 1050.6 170.409 1050.6H173.251C175.563 1050.6 177.48 1053.02 177.48 1055.94V1097.74C177.48 1100.67 175.563 1103.09 173.251 1103.09Z" fill="white"/>
<path d="M138.627 1163.84H126.866C124.553 1163.84 122.637 1161.42 122.637 1158.49V1116.69C122.637 1113.77 124.553 1111.35 126.866 1111.35H138.627C140.94 1111.35 142.856 1113.77 142.856 1116.69V1158.49C142.856 1161.42 140.94 1163.84 138.627 1163.84Z" fill="white"/>
<path d="M173.251 1163.84H170.409C168.097 1163.84 166.181 1161.42 166.181 1158.49V1116.69C166.181 1113.77 168.097 1111.35 170.409 1111.35H173.251C175.563 1111.35 177.48 1113.77 177.48 1116.69V1158.49C177.48 1161.42 175.563 1163.84 173.251 1163.84Z" fill="white"/>
<path d="M862.488 1190.04H998.208C1000.32 1190.04 1001.97 1187.87 1001.97 1185.28V929.516C1001.97 926.845 1000.26 924.759 998.208 924.759H862.488C860.374 924.759 858.722 926.929 858.722 929.516V1185.2C858.722 1187.87 860.44 1190.04 862.488 1190.04Z" fill="#A09DAD"/>
<path d="M978.584 1186.78V927.931C978.584 926.178 976.073 924.76 972.901 924.76H996.292C999.398 924.76 1001.97 926.178 1001.97 927.931V1186.78C1001.97 1188.54 999.464 1189.95 996.292 1189.95H972.901C976.073 1190.04 978.584 1188.62 978.584 1186.78Z" fill="#9A999F"/>
<path d="M866.321 959.557H883.17C884.888 959.557 886.21 957.805 886.21 955.718V947.958C886.21 945.788 884.822 944.119 883.17 944.119H866.321C864.603 944.119 863.281 945.872 863.281 947.958V955.718C863.281 957.805 864.669 959.557 866.321 959.557Z" fill="white"/>
<path d="M948.717 959.557H965.567C967.285 959.557 968.606 957.805 968.606 955.718V947.958C968.606 945.788 967.218 944.119 965.567 944.119H948.717C946.999 944.119 945.678 945.872 945.678 947.958V955.718C945.678 957.805 946.999 959.557 948.717 959.557Z" fill="white"/>
<path d="M921.23 959.557H938.079C939.797 959.557 941.118 957.805 941.118 955.718V947.958C941.118 945.788 939.731 944.119 938.079 944.119H921.23C919.512 944.119 918.19 945.872 918.19 947.958V955.718C918.19 957.805 919.578 959.557 921.23 959.557Z" fill="white"/>
<path d="M893.808 959.557H910.657C912.375 959.557 913.697 957.805 913.697 955.718V947.958C913.697 945.788 912.309 944.119 910.657 944.119H893.808C892.09 944.119 890.769 945.872 890.769 947.958V955.718C890.769 957.805 892.09 959.557 893.808 959.557Z" fill="white"/>
<path d="M866.321 999.946H883.17C884.888 999.946 886.21 998.194 886.21 996.108V988.347C886.21 986.177 884.822 984.508 883.17 984.508H866.321C864.603 984.508 863.281 986.261 863.281 988.347V996.108C863.281 998.277 864.669 999.946 866.321 999.946Z" fill="white"/>
<path d="M948.717 999.946H965.567C967.285 999.946 968.606 998.194 968.606 996.108V988.347C968.606 986.177 967.218 984.508 965.567 984.508H948.717C946.999 984.508 945.678 986.261 945.678 988.347V996.108C945.678 998.277 946.999 999.946 948.717 999.946Z" fill="white"/>
<path d="M921.23 999.946H938.079C939.797 999.946 941.118 998.194 941.118 996.108V988.347C941.118 986.177 939.731 984.508 938.079 984.508H921.23C919.512 984.508 918.19 986.261 918.19 988.347V996.108C918.19 998.277 919.578 999.946 921.23 999.946Z" fill="white"/>
<path d="M893.808 999.946H910.657C912.375 999.946 913.697 998.194 913.697 996.108V988.347C913.697 986.177 912.309 984.508 910.657 984.508H893.808C892.09 984.508 890.769 986.261 890.769 988.347V996.108C890.769 998.277 892.09 999.946 893.808 999.946Z" fill="white"/>
<path d="M866.321 1040.42H883.17C884.888 1040.42 886.21 1038.67 886.21 1036.58V1028.82C886.21 1026.65 884.822 1024.98 883.17 1024.98H866.321C864.603 1024.98 863.281 1026.73 863.281 1028.82V1036.58C863.281 1038.67 864.669 1040.42 866.321 1040.42Z" fill="white"/>
<path d="M948.717 1040.42H965.567C967.285 1040.42 968.606 1038.67 968.606 1036.58V1028.82C968.606 1026.65 967.218 1024.98 965.567 1024.98H948.717C946.999 1024.98 945.678 1026.73 945.678 1028.82V1036.58C945.678 1038.67 946.999 1040.42 948.717 1040.42Z" fill="white"/>
<path d="M921.23 1040.42H938.079C939.797 1040.42 941.118 1038.67 941.118 1036.58V1028.82C941.118 1026.65 939.731 1024.98 938.079 1024.98H921.23C919.512 1024.98 918.19 1026.73 918.19 1028.82V1036.58C918.19 1038.67 919.578 1040.42 921.23 1040.42Z" fill="white"/>
<path d="M893.808 1040.42H910.657C912.375 1040.42 913.697 1038.67 913.697 1036.58V1028.82C913.697 1026.65 912.309 1024.98 910.657 1024.98H893.808C892.09 1024.98 890.769 1026.73 890.769 1028.82V1036.58C890.769 1038.67 892.09 1040.42 893.808 1040.42Z" fill="white"/>
<path d="M866.321 1080.81H883.17C884.888 1080.81 886.21 1079.05 886.21 1076.97V1069.21C886.21 1067.04 884.822 1065.37 883.17 1065.37H866.321C864.603 1065.37 863.281 1067.12 863.281 1069.21V1076.97C863.281 1079.05 864.669 1080.81 866.321 1080.81Z" fill="white"/>
<path d="M948.717 1080.81H965.567C967.285 1080.81 968.606 1079.05 968.606 1076.97V1069.21C968.606 1067.04 967.218 1065.37 965.567 1065.37H948.717C946.999 1065.37 945.678 1067.12 945.678 1069.21V1076.97C945.678 1079.05 946.999 1080.81 948.717 1080.81Z" fill="white"/>
<path d="M921.23 1080.81H938.079C939.797 1080.81 941.118 1079.05 941.118 1076.97V1069.21C941.118 1067.04 939.731 1065.37 938.079 1065.37H921.23C919.512 1065.37 918.19 1067.12 918.19 1069.21V1076.97C918.19 1079.05 919.578 1080.81 921.23 1080.81Z" fill="white"/>
<path d="M893.808 1080.81H910.657C912.375 1080.81 913.697 1079.05 913.697 1076.97V1069.21C913.697 1067.04 912.309 1065.37 910.657 1065.37H893.808C892.09 1065.37 890.769 1067.12 890.769 1069.21V1076.97C890.769 1079.05 892.09 1080.81 893.808 1080.81Z" fill="white"/>
<path d="M866.321 1121.19H883.17C884.888 1121.19 886.21 1119.44 886.21 1117.36V1109.6C886.21 1107.43 884.822 1105.76 883.17 1105.76H866.321C864.603 1105.76 863.281 1107.51 863.281 1109.6V1117.36C863.281 1119.44 864.669 1121.19 866.321 1121.19Z" fill="white"/>
<path d="M948.717 1121.19H965.567C967.285 1121.19 968.606 1119.44 968.606 1117.36V1109.6C968.606 1107.43 967.218 1105.76 965.567 1105.76H948.717C946.999 1105.76 945.678 1107.51 945.678 1109.6V1117.36C945.678 1119.44 946.999 1121.19 948.717 1121.19Z" fill="white"/>
<path d="M921.23 1121.19H938.079C939.797 1121.19 941.118 1119.44 941.118 1117.36V1109.6C941.118 1107.43 939.731 1105.76 938.079 1105.76H921.23C919.512 1105.76 918.19 1107.51 918.19 1109.6V1117.36C918.19 1119.44 919.578 1121.19 921.23 1121.19Z" fill="white"/>
<path d="M893.808 1121.19H910.657C912.375 1121.19 913.697 1119.44 913.697 1117.36V1109.6C913.697 1107.43 912.309 1105.76 910.657 1105.76H893.808C892.09 1105.76 890.769 1107.51 890.769 1109.6V1117.36C890.769 1119.44 892.09 1121.19 893.808 1121.19Z" fill="white"/>
<path d="M866.321 1161.58H883.17C884.888 1161.58 886.21 1159.83 886.21 1157.74V1149.98C886.21 1147.81 884.822 1146.14 883.17 1146.14H866.321C864.603 1146.14 863.281 1147.9 863.281 1149.98V1157.74C863.281 1159.91 864.669 1161.58 866.321 1161.58Z" fill="white"/>
<path d="M948.717 1161.58H965.567C967.285 1161.58 968.606 1159.83 968.606 1157.74V1149.98C968.606 1147.81 967.218 1146.14 965.567 1146.14H948.717C946.999 1146.14 945.678 1147.9 945.678 1149.98V1157.74C945.678 1159.91 946.999 1161.58 948.717 1161.58Z" fill="white"/>
<path d="M921.23 1161.58H938.079C939.797 1161.58 941.118 1159.83 941.118 1157.74V1149.98C941.118 1147.81 939.731 1146.14 938.079 1146.14H921.23C919.512 1146.14 918.19 1147.9 918.19 1149.98V1157.74C918.19 1159.91 919.578 1161.58 921.23 1161.58Z" fill="white"/>
<path d="M893.808 1161.58H910.657C912.375 1161.58 913.697 1159.83 913.697 1157.74V1149.98C913.697 1147.81 912.309 1146.14 910.657 1146.14H893.808C892.09 1146.14 890.769 1147.9 890.769 1149.98V1157.74C890.769 1159.91 892.09 1161.58 893.808 1161.58Z" fill="white"/>
<path d="M1388.91 1190.04H1128.11C1125.27 1190.04 1122.96 1187.12 1122.96 1183.53V467.888C1122.96 464.299 1125.27 461.379 1128.11 461.379H1388.91C1391.76 461.379 1394.07 464.299 1394.07 467.888V1183.53C1394.07 1187.12 1391.76 1190.04 1388.91 1190.04Z" fill="#B2B0BE"/>
<path d="M1342.53 1190.04H1127.58C1125.01 1190.04 1122.89 1187.37 1122.89 1184.11V467.303C1122.89 464.049 1125.01 461.379 1127.58 461.379H1342.53C1345.11 461.379 1347.22 464.049 1347.22 467.303V1184.11C1347.29 1187.37 1345.17 1190.04 1342.53 1190.04Z" fill="#9A999F"/>
<path d="M1322.18 560.097H1311.34C1308.76 560.097 1306.65 557.426 1306.65 554.172V501.183C1306.65 497.929 1308.76 495.258 1311.34 495.258H1322.18C1324.75 495.258 1326.87 497.929 1326.87 501.183V554.172C1326.94 557.426 1324.82 560.097 1322.18 560.097Z" fill="white"/>
<path d="M1322.18 635.115H1311.34C1308.76 635.115 1306.65 632.445 1306.65 629.19V576.202C1306.65 572.947 1308.76 570.277 1311.34 570.277H1322.18C1324.75 570.277 1326.87 572.947 1326.87 576.202V629.19C1326.94 632.445 1324.82 635.115 1322.18 635.115Z" fill="white"/>
<path d="M1322.18 710.134H1311.34C1308.76 710.134 1306.65 707.464 1306.65 704.209V651.22C1306.65 647.966 1308.76 645.295 1311.34 645.295H1322.18C1324.75 645.295 1326.87 647.966 1326.87 651.22V704.209C1326.94 707.464 1324.82 710.134 1322.18 710.134Z" fill="white"/>
<path d="M1322.18 785.153H1311.34C1308.76 785.153 1306.65 782.483 1306.65 779.228V726.239C1306.65 722.985 1308.76 720.314 1311.34 720.314H1322.18C1324.75 720.314 1326.87 722.985 1326.87 726.239V779.228C1326.94 782.483 1324.82 785.153 1322.18 785.153Z" fill="white"/>
<path d="M1322.18 860.171H1311.34C1308.76 860.171 1306.65 857.501 1306.65 854.247V801.258C1306.65 798.003 1308.76 795.333 1311.34 795.333H1322.18C1324.75 795.333 1326.87 798.003 1326.87 801.258V854.247C1326.94 857.501 1324.82 860.171 1322.18 860.171Z" fill="white"/>
<path d="M1322.18 935.107H1311.34C1308.76 935.107 1306.65 932.437 1306.65 929.182V876.193C1306.65 872.939 1308.76 870.268 1311.34 870.268H1322.18C1324.75 870.268 1326.87 872.939 1326.87 876.193V929.182C1326.94 932.52 1324.82 935.107 1322.18 935.107Z" fill="white"/>
<path d="M1322.18 1010.13H1311.34C1308.76 1010.13 1306.65 1007.46 1306.65 1004.2V951.212C1306.65 947.958 1308.76 945.288 1311.34 945.288H1322.18C1324.75 945.288 1326.87 947.958 1326.87 951.212V1004.2C1326.94 1007.46 1324.82 1010.13 1322.18 1010.13Z" fill="white"/>
<path d="M1322.18 1085.14H1311.34C1308.76 1085.14 1306.65 1082.47 1306.65 1079.22V1026.23C1306.65 1022.98 1308.76 1020.31 1311.34 1020.31H1322.18C1324.75 1020.31 1326.87 1022.98 1326.87 1026.23V1079.22C1326.94 1082.47 1324.82 1085.14 1322.18 1085.14Z" fill="white"/>
<path d="M1322.18 1160.16H1311.34C1308.76 1160.16 1306.65 1157.49 1306.65 1154.24V1101.25C1306.65 1098 1308.76 1095.32 1311.34 1095.32H1322.18C1324.75 1095.32 1326.87 1098 1326.87 1101.25V1154.24C1326.94 1157.49 1324.82 1160.16 1322.18 1160.16Z" fill="white"/>
<path d="M1270.11 560.097H1268.19C1265.62 560.097 1263.5 557.426 1263.5 554.172V501.183C1263.5 497.929 1265.62 495.258 1268.19 495.258H1270.11C1272.69 495.258 1274.8 497.929 1274.8 501.183V554.172C1274.8 557.426 1272.69 560.097 1270.11 560.097Z" fill="white"/>
<path d="M1235.49 635.115H1224.65C1222.07 635.115 1219.96 632.445 1219.96 629.19V576.202C1219.96 572.947 1222.07 570.277 1224.65 570.277H1235.49C1238.06 570.277 1240.18 572.947 1240.18 576.202V629.19C1240.18 632.445 1238.06 635.115 1235.49 635.115Z" fill="white"/>
<path d="M1270.11 635.115H1268.19C1265.62 635.115 1263.5 632.445 1263.5 629.19V576.202C1263.5 572.947 1265.62 570.277 1268.19 570.277H1270.11C1272.69 570.277 1274.8 572.947 1274.8 576.202V629.19C1274.8 632.445 1272.69 635.115 1270.11 635.115Z" fill="white"/>
<path d="M1235.49 710.134H1224.65C1222.07 710.134 1219.96 707.464 1219.96 704.209V651.22C1219.96 647.966 1222.07 645.295 1224.65 645.295H1235.49C1238.06 645.295 1240.18 647.966 1240.18 651.22V704.209C1240.18 707.464 1238.06 710.134 1235.49 710.134Z" fill="white"/>
<path d="M1270.11 710.134H1268.19C1265.62 710.134 1263.5 707.464 1263.5 704.209V651.22C1263.5 647.966 1265.62 645.295 1268.19 645.295H1270.11C1272.69 645.295 1274.8 647.966 1274.8 651.22V704.209C1274.8 707.464 1272.69 710.134 1270.11 710.134Z" fill="white"/>
<path d="M1235.49 785.153H1224.65C1222.07 785.153 1219.96 782.483 1219.96 779.228V726.239C1219.96 722.985 1222.07 720.314 1224.65 720.314H1235.49C1238.06 720.314 1240.18 722.985 1240.18 726.239V779.228C1240.18 782.483 1238.06 785.153 1235.49 785.153Z" fill="white"/>
<path d="M1270.11 785.153H1268.19C1265.62 785.153 1263.5 782.483 1263.5 779.228V726.239C1263.5 722.985 1265.62 720.314 1268.19 720.314H1270.11C1272.69 720.314 1274.8 722.985 1274.8 726.239V779.228C1274.8 782.483 1272.69 785.153 1270.11 785.153Z" fill="white"/>
<path d="M1235.49 860.171H1224.65C1222.07 860.171 1219.96 857.501 1219.96 854.247V801.258C1219.96 798.003 1222.07 795.333 1224.65 795.333H1235.49C1238.06 795.333 1240.18 798.003 1240.18 801.258V854.247C1240.18 857.501 1238.06 860.171 1235.49 860.171Z" fill="white"/>
<path d="M1270.11 860.171H1268.19C1265.62 860.171 1263.5 857.501 1263.5 854.247V801.258C1263.5 798.003 1265.62 795.333 1268.19 795.333H1270.11C1272.69 795.333 1274.8 798.003 1274.8 801.258V854.247C1274.8 857.501 1272.69 860.171 1270.11 860.171Z" fill="white"/>
<path d="M1235.49 935.107H1224.65C1222.07 935.107 1219.96 932.437 1219.96 929.182V876.193C1219.96 872.939 1222.07 870.268 1224.65 870.268H1235.49C1238.06 870.268 1240.18 872.939 1240.18 876.193V929.182C1240.18 932.52 1238.06 935.107 1235.49 935.107Z" fill="white"/>
<path d="M1270.11 935.107H1268.19C1265.62 935.107 1263.5 932.437 1263.5 929.182V876.193C1263.5 872.939 1265.62 870.268 1268.19 870.268H1270.11C1272.69 870.268 1274.8 872.939 1274.8 876.193V929.182C1274.8 932.52 1272.69 935.107 1270.11 935.107Z" fill="white"/>
<path d="M1235.49 1010.13H1224.65C1222.07 1010.13 1219.96 1007.46 1219.96 1004.2V951.212C1219.96 947.958 1222.07 945.288 1224.65 945.288H1235.49C1238.06 945.288 1240.18 947.958 1240.18 951.212V1004.2C1240.18 1007.46 1238.06 1010.13 1235.49 1010.13Z" fill="white"/>
<path d="M1270.11 1010.13H1268.19C1265.62 1010.13 1263.5 1007.46 1263.5 1004.2V951.212C1263.5 947.958 1265.62 945.288 1268.19 945.288H1270.11C1272.69 945.288 1274.8 947.958 1274.8 951.212V1004.2C1274.8 1007.46 1272.69 1010.13 1270.11 1010.13Z" fill="white"/>
<path d="M1235.49 1085.14H1224.65C1222.07 1085.14 1219.96 1082.47 1219.96 1079.22V1026.23C1219.96 1022.98 1222.07 1020.31 1224.65 1020.31H1235.49C1238.06 1020.31 1240.18 1022.98 1240.18 1026.23V1079.22C1240.18 1082.47 1238.06 1085.14 1235.49 1085.14Z" fill="white"/>
<path d="M1270.11 1085.14H1268.19C1265.62 1085.14 1263.5 1082.47 1263.5 1079.22V1026.23C1263.5 1022.98 1265.62 1020.31 1268.19 1020.31H1270.11C1272.69 1020.31 1274.8 1022.98 1274.8 1026.23V1079.22C1274.8 1082.47 1272.69 1085.14 1270.11 1085.14Z" fill="white"/>
<path d="M1235.49 1160.16H1224.65C1222.07 1160.16 1219.96 1157.49 1219.96 1154.24V1101.25C1219.96 1098 1222.07 1095.32 1224.65 1095.32H1235.49C1238.06 1095.32 1240.18 1098 1240.18 1101.25V1154.24C1240.18 1157.49 1238.06 1160.16 1235.49 1160.16Z" fill="white"/>
<path d="M1270.11 1160.16H1268.19C1265.62 1160.16 1263.5 1157.49 1263.5 1154.24V1101.25C1263.5 1098 1265.62 1095.32 1268.19 1095.32H1270.11C1272.69 1095.32 1274.8 1098 1274.8 1101.25V1154.24C1274.8 1157.49 1272.69 1160.16 1270.11 1160.16Z" fill="white"/>
<path d="M1149.46 635.115H1138.62C1136.04 635.115 1133.93 632.445 1133.93 629.19V576.202C1133.93 572.947 1136.04 570.277 1138.62 570.277H1149.46C1152.03 570.277 1154.15 572.947 1154.15 576.202V629.19C1154.15 632.445 1152.03 635.115 1149.46 635.115Z" fill="white"/>
<path d="M1184.08 635.115H1182.16C1179.59 635.115 1177.47 632.445 1177.47 629.19V576.202C1177.47 572.947 1179.59 570.277 1182.16 570.277H1184.08C1186.66 570.277 1188.77 572.947 1188.77 576.202V629.19C1188.77 632.445 1186.72 635.115 1184.08 635.115Z" fill="white"/>
<path d="M1149.46 710.134H1138.62C1136.04 710.134 1133.93 707.464 1133.93 704.209V651.22C1133.93 647.966 1136.04 645.295 1138.62 645.295H1149.46C1152.03 645.295 1154.15 647.966 1154.15 651.22V704.209C1154.15 707.464 1152.03 710.134 1149.46 710.134Z" fill="white"/>
<path d="M1184.08 710.134H1182.16C1179.59 710.134 1177.47 707.464 1177.47 704.209V651.22C1177.47 647.966 1179.59 645.295 1182.16 645.295H1184.08C1186.66 645.295 1188.77 647.966 1188.77 651.22V704.209C1188.77 707.464 1186.72 710.134 1184.08 710.134Z" fill="white"/>
<path d="M1149.46 785.153H1138.62C1136.04 785.153 1133.93 782.483 1133.93 779.228V726.239C1133.93 722.985 1136.04 720.314 1138.62 720.314H1149.46C1152.03 720.314 1154.15 722.985 1154.15 726.239V779.228C1154.15 782.483 1152.03 785.153 1149.46 785.153Z" fill="white"/>
<path d="M1184.08 785.153H1182.16C1179.59 785.153 1177.47 782.483 1177.47 779.228V726.239C1177.47 722.985 1179.59 720.314 1182.16 720.314H1184.08C1186.66 720.314 1188.77 722.985 1188.77 726.239V779.228C1188.77 782.483 1186.72 785.153 1184.08 785.153Z" fill="white"/>
<path d="M1149.46 860.171H1138.62C1136.04 860.171 1133.93 857.501 1133.93 854.247V801.258C1133.93 798.003 1136.04 795.333 1138.62 795.333H1149.46C1152.03 795.333 1154.15 798.003 1154.15 801.258V854.247C1154.15 857.501 1152.03 860.171 1149.46 860.171Z" fill="white"/>
<path d="M1184.08 860.171H1182.16C1179.59 860.171 1177.47 857.501 1177.47 854.247V801.258C1177.47 798.003 1179.59 795.333 1182.16 795.333H1184.08C1186.66 795.333 1188.77 798.003 1188.77 801.258V854.247C1188.77 857.501 1186.72 860.171 1184.08 860.171Z" fill="white"/>
<path d="M1149.46 935.107H1138.62C1136.04 935.107 1133.93 932.437 1133.93 929.182V876.193C1133.93 872.939 1136.04 870.268 1138.62 870.268H1149.46C1152.03 870.268 1154.15 872.939 1154.15 876.193V929.182C1154.15 932.52 1152.03 935.107 1149.46 935.107Z" fill="white"/>
<path d="M1184.08 935.107H1182.16C1179.59 935.107 1177.47 932.437 1177.47 929.182V876.193C1177.47 872.939 1179.59 870.268 1182.16 870.268H1184.08C1186.66 870.268 1188.77 872.939 1188.77 876.193V929.182C1188.77 932.52 1186.72 935.107 1184.08 935.107Z" fill="white"/>
<path d="M1149.46 1010.13H1138.62C1136.04 1010.13 1133.93 1007.46 1133.93 1004.2V951.212C1133.93 947.958 1136.04 945.288 1138.62 945.288H1149.46C1152.03 945.288 1154.15 947.958 1154.15 951.212V1004.2C1154.15 1007.46 1152.03 1010.13 1149.46 1010.13Z" fill="white"/>
<path d="M1184.08 1010.13H1182.16C1179.59 1010.13 1177.47 1007.46 1177.47 1004.2V951.212C1177.47 947.958 1179.59 945.288 1182.16 945.288H1184.08C1186.66 945.288 1188.77 947.958 1188.77 951.212V1004.2C1188.77 1007.46 1186.72 1010.13 1184.08 1010.13Z" fill="white"/>
<path d="M1149.46 1085.14H1138.62C1136.04 1085.14 1133.93 1082.47 1133.93 1079.22V1026.23C1133.93 1022.98 1136.04 1020.31 1138.62 1020.31H1149.46C1152.03 1020.31 1154.15 1022.98 1154.15 1026.23V1079.22C1154.15 1082.47 1152.03 1085.14 1149.46 1085.14Z" fill="white"/>
<path d="M1184.08 1085.14H1182.16C1179.59 1085.14 1177.47 1082.47 1177.47 1079.22V1026.23C1177.47 1022.98 1179.59 1020.31 1182.16 1020.31H1184.08C1186.66 1020.31 1188.77 1022.98 1188.77 1026.23V1079.22C1188.77 1082.47 1186.72 1085.14 1184.08 1085.14Z" fill="white"/>
<path d="M1149.46 1160.16H1138.62C1136.04 1160.16 1133.93 1157.49 1133.93 1154.24V1101.25C1133.93 1098 1136.04 1095.32 1138.62 1095.32H1149.46C1152.03 1095.32 1154.15 1098 1154.15 1101.25V1154.24C1154.15 1157.49 1152.03 1160.16 1149.46 1160.16Z" fill="white"/>
<path d="M1184.08 1160.16H1182.16C1179.59 1160.16 1177.47 1157.49 1177.47 1154.24V1101.25C1177.47 1098 1179.59 1095.32 1182.16 1095.32H1184.08C1186.66 1095.32 1188.77 1098 1188.77 1101.25V1154.24C1188.77 1157.49 1186.72 1160.16 1184.08 1160.16Z" fill="white"/>
<path d="M1301.36 1190.04H1433.32C1436.42 1190.04 1439 1186.87 1439 1182.86V602.487C1439 598.565 1436.49 595.311 1433.32 595.311H1301.36C1298.26 595.311 1295.68 598.482 1295.68 602.487V1182.86C1295.68 1186.78 1298.19 1190.04 1301.36 1190.04Z" fill="#D7D6DD"/>
<path d="M1433.32 595.311H1406.36C1409.46 595.311 1412.04 598.482 1412.04 602.487V1182.86C1412.04 1186.78 1409.53 1190.04 1406.36 1190.04H1433.32C1436.42 1190.04 1439 1186.87 1439 1182.86V602.487C1439 598.482 1436.42 595.311 1433.32 595.311Z" fill="#9A999F"/>
<path d="M1303.28 630.109H1320.13C1321.85 630.109 1323.17 628.356 1323.17 626.27V618.51C1323.17 616.34 1321.78 614.671 1320.13 614.671H1303.28C1301.56 614.671 1300.24 616.423 1300.24 618.51V626.27C1300.24 628.44 1301.63 630.109 1303.28 630.109Z" fill="white"/>
<path d="M1385.68 630.109H1402.53C1404.24 630.109 1405.57 628.356 1405.57 626.27V618.51C1405.57 616.34 1404.18 614.671 1402.53 614.671H1385.68C1383.96 614.671 1382.64 616.423 1382.64 618.51V626.27C1382.64 628.44 1383.96 630.109 1385.68 630.109Z" fill="white"/>
<path d="M1358.19 630.109H1375.04C1376.76 630.109 1378.08 628.356 1378.08 626.27V618.51C1378.08 616.34 1376.69 614.671 1375.04 614.671H1358.19C1356.47 614.671 1355.15 616.423 1355.15 618.51V626.27C1355.15 628.44 1356.54 630.109 1358.19 630.109Z" fill="white"/>
<path d="M1330.77 630.109H1347.62C1349.33 630.109 1350.66 628.356 1350.66 626.27V618.51C1350.66 616.34 1349.27 614.671 1347.62 614.671H1330.77C1329.05 614.671 1327.73 616.423 1327.73 618.51V626.27C1327.66 628.44 1329.05 630.109 1330.77 630.109Z" fill="white"/>
<path d="M1303.28 670.58H1320.13C1321.85 670.58 1323.17 668.828 1323.17 666.742V658.981C1323.17 656.812 1321.78 655.143 1320.13 655.143H1303.28C1301.56 655.143 1300.24 656.895 1300.24 658.981V666.742C1300.24 668.828 1301.63 670.58 1303.28 670.58Z" fill="white"/>
<path d="M1385.68 670.58H1402.53C1404.24 670.58 1405.57 668.828 1405.57 666.742V658.981C1405.57 656.812 1404.18 655.143 1402.53 655.143H1385.68C1383.96 655.143 1382.64 656.895 1382.64 658.981V666.742C1382.64 668.828 1383.96 670.58 1385.68 670.58Z" fill="white"/>
<path d="M1358.19 670.58H1375.04C1376.76 670.58 1378.08 668.828 1378.08 666.742V658.981C1378.08 656.812 1376.69 655.143 1375.04 655.143H1358.19C1356.47 655.143 1355.15 656.895 1355.15 658.981V666.742C1355.15 668.828 1356.54 670.58 1358.19 670.58Z" fill="white"/>
<path d="M1330.77 670.58H1347.62C1349.33 670.58 1350.66 668.828 1350.66 666.742V658.981C1350.66 656.812 1349.27 655.143 1347.62 655.143H1330.77C1329.05 655.143 1327.73 656.895 1327.73 658.981V666.742C1327.66 668.828 1329.05 670.58 1330.77 670.58Z" fill="white"/>
<path d="M1303.28 710.968H1320.13C1321.85 710.968 1323.17 709.216 1323.17 707.13V699.369C1323.17 697.2 1321.78 695.531 1320.13 695.531H1303.28C1301.56 695.531 1300.24 697.283 1300.24 699.369V707.13C1300.24 709.216 1301.63 710.968 1303.28 710.968Z" fill="white"/>
<path d="M1385.68 710.968H1402.53C1404.24 710.968 1405.57 709.216 1405.57 707.13V699.369C1405.57 697.2 1404.18 695.531 1402.53 695.531H1385.68C1383.96 695.531 1382.64 697.283 1382.64 699.369V707.13C1382.64 709.216 1383.96 710.968 1385.68 710.968Z" fill="white"/>
<path d="M1358.19 710.968H1375.04C1376.76 710.968 1378.08 709.216 1378.08 707.13V699.369C1378.08 697.2 1376.69 695.531 1375.04 695.531H1358.19C1356.47 695.531 1355.15 697.283 1355.15 699.369V707.13C1355.15 709.216 1356.54 710.968 1358.19 710.968Z" fill="white"/>
<path d="M1330.77 710.968H1347.62C1349.33 710.968 1350.66 709.216 1350.66 707.13V699.369C1350.66 697.2 1349.27 695.531 1347.62 695.531H1330.77C1329.05 695.531 1327.73 697.283 1327.73 699.369V707.13C1327.66 709.216 1329.05 710.968 1330.77 710.968Z" fill="white"/>
<path d="M1303.28 751.357H1320.13C1321.85 751.357 1323.17 749.605 1323.17 747.519V739.758C1323.17 737.588 1321.78 735.919 1320.13 735.919H1303.28C1301.56 735.919 1300.24 737.672 1300.24 739.758V747.519C1300.24 749.605 1301.63 751.357 1303.28 751.357Z" fill="white"/>
<path d="M1385.68 751.357H1402.53C1404.24 751.357 1405.57 749.605 1405.57 747.519V739.758C1405.57 737.588 1404.18 735.919 1402.53 735.919H1385.68C1383.96 735.919 1382.64 737.672 1382.64 739.758V747.519C1382.64 749.605 1383.96 751.357 1385.68 751.357Z" fill="white"/>
<path d="M1358.19 751.357H1375.04C1376.76 751.357 1378.08 749.605 1378.08 747.519V739.758C1378.08 737.588 1376.69 735.919 1375.04 735.919H1358.19C1356.47 735.919 1355.15 737.672 1355.15 739.758V747.519C1355.15 749.605 1356.54 751.357 1358.19 751.357Z" fill="white"/>
<path d="M1330.77 751.357H1347.62C1349.33 751.357 1350.66 749.605 1350.66 747.519V739.758C1350.66 737.588 1349.27 735.919 1347.62 735.919H1330.77C1329.05 735.919 1327.73 737.672 1327.73 739.758V747.519C1327.66 749.605 1329.05 751.357 1330.77 751.357Z" fill="white"/>
<path d="M1303.28 791.746H1320.13C1321.85 791.746 1323.17 789.993 1323.17 787.907V780.147C1323.17 777.977 1321.78 776.308 1320.13 776.308H1303.28C1301.56 776.308 1300.24 778.06 1300.24 780.147V787.907C1300.24 790.077 1301.63 791.746 1303.28 791.746Z" fill="white"/>
<path d="M1385.68 791.746H1402.53C1404.24 791.746 1405.57 789.993 1405.57 787.907V780.147C1405.57 777.977 1404.18 776.308 1402.53 776.308H1385.68C1383.96 776.308 1382.64 778.06 1382.64 780.147V787.907C1382.64 790.077 1383.96 791.746 1385.68 791.746Z" fill="white"/>
<path d="M1358.19 791.746H1375.04C1376.76 791.746 1378.08 789.993 1378.08 787.907V780.147C1378.08 777.977 1376.69 776.308 1375.04 776.308H1358.19C1356.47 776.308 1355.15 778.06 1355.15 780.147V787.907C1355.15 790.077 1356.54 791.746 1358.19 791.746Z" fill="white"/>
<path d="M1330.77 791.746H1347.62C1349.33 791.746 1350.66 789.993 1350.66 787.907V780.147C1350.66 777.977 1349.27 776.308 1347.62 776.308H1330.77C1329.05 776.308 1327.73 778.06 1327.73 780.147V787.907C1327.66 790.077 1329.05 791.746 1330.77 791.746Z" fill="white"/>
<path d="M1303.28 832.218H1320.13C1321.85 832.218 1323.17 830.465 1323.17 828.379V820.619C1323.17 818.449 1321.78 816.78 1320.13 816.78H1303.28C1301.56 816.78 1300.24 818.532 1300.24 820.619V828.379C1300.24 830.465 1301.63 832.218 1303.28 832.218Z" fill="white"/>
<path d="M1385.68 832.218H1402.53C1404.24 832.218 1405.57 830.465 1405.57 828.379V820.619C1405.57 818.449 1404.18 816.78 1402.53 816.78H1385.68C1383.96 816.78 1382.64 818.532 1382.64 820.619V828.379C1382.64 830.465 1383.96 832.218 1385.68 832.218Z" fill="white"/>
<path d="M1358.19 832.218H1375.04C1376.76 832.218 1378.08 830.465 1378.08 828.379V820.619C1378.08 818.449 1376.69 816.78 1375.04 816.78H1358.19C1356.47 816.78 1355.15 818.532 1355.15 820.619V828.379C1355.15 830.465 1356.54 832.218 1358.19 832.218Z" fill="white"/>
<path d="M1330.77 832.218H1347.62C1349.33 832.218 1350.66 830.465 1350.66 828.379V820.619C1350.66 818.449 1349.27 816.78 1347.62 816.78H1330.77C1329.05 816.78 1327.73 818.532 1327.73 820.619V828.379C1327.66 830.465 1329.05 832.218 1330.77 832.218Z" fill="white"/>
<path d="M1303.28 872.606H1320.13C1321.85 872.606 1323.17 870.853 1323.17 868.767V861.007C1323.17 858.837 1321.78 857.168 1320.13 857.168H1303.28C1301.56 857.168 1300.24 858.921 1300.24 861.007V868.767C1300.24 870.853 1301.63 872.606 1303.28 872.606Z" fill="white"/>
<path d="M1385.68 872.606H1402.53C1404.24 872.606 1405.57 870.853 1405.57 868.767V861.007C1405.57 858.837 1404.18 857.168 1402.53 857.168H1385.68C1383.96 857.168 1382.64 858.921 1382.64 861.007V868.767C1382.64 870.853 1383.96 872.606 1385.68 872.606Z" fill="white"/>
<path d="M1358.19 872.606H1375.04C1376.76 872.606 1378.08 870.853 1378.08 868.767V861.007C1378.08 858.837 1376.69 857.168 1375.04 857.168H1358.19C1356.47 857.168 1355.15 858.921 1355.15 861.007V868.767C1355.15 870.853 1356.54 872.606 1358.19 872.606Z" fill="white"/>
<path d="M1330.77 872.606H1347.62C1349.33 872.606 1350.66 870.853 1350.66 868.767V861.007C1350.66 858.837 1349.27 857.168 1347.62 857.168H1330.77C1329.05 857.168 1327.73 858.921 1327.73 861.007V868.767C1327.66 870.853 1329.05 872.606 1330.77 872.606Z" fill="white"/>
<path d="M1303.28 912.994H1320.13C1321.85 912.994 1323.17 911.241 1323.17 909.155V901.395C1323.17 899.225 1321.78 897.556 1320.13 897.556H1303.28C1301.56 897.556 1300.24 899.308 1300.24 901.395V909.155C1300.24 911.241 1301.63 912.994 1303.28 912.994Z" fill="white"/>
<path d="M1385.68 912.994H1402.53C1404.24 912.994 1405.57 911.241 1405.57 909.155V901.395C1405.57 899.225 1404.18 897.556 1402.53 897.556H1385.68C1383.96 897.556 1382.64 899.308 1382.64 901.395V909.155C1382.64 911.241 1383.96 912.994 1385.68 912.994Z" fill="white"/>
<path d="M1358.19 912.994H1375.04C1376.76 912.994 1378.08 911.241 1378.08 909.155V901.395C1378.08 899.225 1376.69 897.556 1375.04 897.556H1358.19C1356.47 897.556 1355.15 899.308 1355.15 901.395V909.155C1355.15 911.241 1356.54 912.994 1358.19 912.994Z" fill="white"/>
<path d="M1330.77 912.994H1347.62C1349.33 912.994 1350.66 911.241 1350.66 909.155V901.395C1350.66 899.225 1349.27 897.556 1347.62 897.556H1330.77C1329.05 897.556 1327.73 899.308 1327.73 901.395V909.155C1327.66 911.241 1329.05 912.994 1330.77 912.994Z" fill="white"/>
<path d="M1303.28 953.382H1320.13C1321.85 953.382 1323.17 951.63 1323.17 949.544V941.783C1323.17 939.613 1321.78 937.945 1320.13 937.945H1303.28C1301.56 937.945 1300.24 939.697 1300.24 941.783V949.544C1300.24 951.713 1301.63 953.382 1303.28 953.382Z" fill="white"/>
<path d="M1385.68 953.382H1402.53C1404.24 953.382 1405.57 951.63 1405.57 949.544V941.783C1405.57 939.613 1404.18 937.945 1402.53 937.945H1385.68C1383.96 937.945 1382.64 939.697 1382.64 941.783V949.544C1382.64 951.713 1383.96 953.382 1385.68 953.382Z" fill="white"/>
<path d="M1358.19 953.382H1375.04C1376.76 953.382 1378.08 951.63 1378.08 949.544V941.783C1378.08 939.613 1376.69 937.945 1375.04 937.945H1358.19C1356.47 937.945 1355.15 939.697 1355.15 941.783V949.544C1355.15 951.713 1356.54 953.382 1358.19 953.382Z" fill="white"/>
<path d="M1330.77 953.382H1347.62C1349.33 953.382 1350.66 951.63 1350.66 949.544V941.783C1350.66 939.613 1349.27 937.945 1347.62 937.945H1330.77C1329.05 937.945 1327.73 939.697 1327.73 941.783V949.544C1327.66 951.713 1329.05 953.382 1330.77 953.382Z" fill="white"/>
<path d="M1303.28 993.854H1320.13C1321.85 993.854 1323.17 992.102 1323.17 990.015V982.255C1323.17 980.085 1321.78 978.416 1320.13 978.416H1303.28C1301.56 978.416 1300.24 980.168 1300.24 982.255V990.015C1300.24 992.102 1301.63 993.854 1303.28 993.854Z" fill="white"/>
<path d="M1385.68 993.854H1402.53C1404.24 993.854 1405.57 992.102 1405.57 990.015V982.255C1405.57 980.085 1404.18 978.416 1402.53 978.416H1385.68C1383.96 978.416 1382.64 980.168 1382.64 982.255V990.015C1382.64 992.102 1383.96 993.854 1385.68 993.854Z" fill="white"/>
<path d="M1358.19 993.854H1375.04C1376.76 993.854 1378.08 992.102 1378.08 990.015V982.255C1378.08 980.085 1376.69 978.416 1375.04 978.416H1358.19C1356.47 978.416 1355.15 980.168 1355.15 982.255V990.015C1355.15 992.102 1356.54 993.854 1358.19 993.854Z" fill="white"/>
<path d="M1330.77 993.854H1347.62C1349.33 993.854 1350.66 992.102 1350.66 990.015V982.255C1350.66 980.085 1349.27 978.416 1347.62 978.416H1330.77C1329.05 978.416 1327.73 980.168 1327.73 982.255V990.015C1327.66 992.102 1329.05 993.854 1330.77 993.854Z" fill="white"/>
<path d="M1303.28 1034.24H1320.13C1321.85 1034.24 1323.17 1032.49 1323.17 1030.4V1022.64C1323.17 1020.47 1321.78 1018.8 1320.13 1018.8H1303.28C1301.56 1018.8 1300.24 1020.56 1300.24 1022.64V1030.4C1300.24 1032.49 1301.63 1034.24 1303.28 1034.24Z" fill="white"/>
<path d="M1385.68 1034.24H1402.53C1404.24 1034.24 1405.57 1032.49 1405.57 1030.4V1022.64C1405.57 1020.47 1404.18 1018.8 1402.53 1018.8H1385.68C1383.96 1018.8 1382.64 1020.56 1382.64 1022.64V1030.4C1382.64 1032.49 1383.96 1034.24 1385.68 1034.24Z" fill="white"/>
<path d="M1358.19 1034.24H1375.04C1376.76 1034.24 1378.08 1032.49 1378.08 1030.4V1022.64C1378.08 1020.47 1376.69 1018.8 1375.04 1018.8H1358.19C1356.47 1018.8 1355.15 1020.56 1355.15 1022.64V1030.4C1355.15 1032.49 1356.54 1034.24 1358.19 1034.24Z" fill="white"/>
<path d="M1330.77 1034.24H1347.62C1349.33 1034.24 1350.66 1032.49 1350.66 1030.4V1022.64C1350.66 1020.47 1349.27 1018.8 1347.62 1018.8H1330.77C1329.05 1018.8 1327.73 1020.56 1327.73 1022.64V1030.4C1327.66 1032.49 1329.05 1034.24 1330.77 1034.24Z" fill="white"/>
<path d="M1303.28 1074.63H1320.13C1321.85 1074.63 1323.17 1072.88 1323.17 1070.79V1063.03C1323.17 1060.86 1321.78 1059.19 1320.13 1059.19H1303.28C1301.56 1059.19 1300.24 1060.95 1300.24 1063.03V1070.79C1300.24 1072.88 1301.63 1074.63 1303.28 1074.63Z" fill="white"/>
<path d="M1385.68 1074.63H1402.53C1404.24 1074.63 1405.57 1072.88 1405.57 1070.79V1063.03C1405.57 1060.86 1404.18 1059.19 1402.53 1059.19H1385.68C1383.96 1059.19 1382.64 1060.95 1382.64 1063.03V1070.79C1382.64 1072.88 1383.96 1074.63 1385.68 1074.63Z" fill="white"/>
<path d="M1358.19 1074.63H1375.04C1376.76 1074.63 1378.08 1072.88 1378.08 1070.79V1063.03C1378.08 1060.86 1376.69 1059.19 1375.04 1059.19H1358.19C1356.47 1059.19 1355.15 1060.95 1355.15 1063.03V1070.79C1355.15 1072.88 1356.54 1074.63 1358.19 1074.63Z" fill="white"/>
<path d="M1330.77 1074.63H1347.62C1349.33 1074.63 1350.66 1072.88 1350.66 1070.79V1063.03C1350.66 1060.86 1349.27 1059.19 1347.62 1059.19H1330.77C1329.05 1059.19 1327.73 1060.95 1327.73 1063.03V1070.79C1327.66 1072.88 1329.05 1074.63 1330.77 1074.63Z" fill="white"/>
<path d="M1303.28 1115.02H1320.13C1321.85 1115.02 1323.17 1113.27 1323.17 1111.18V1103.42C1323.17 1101.25 1321.78 1099.58 1320.13 1099.58H1303.28C1301.56 1099.58 1300.24 1101.33 1300.24 1103.42V1111.18C1300.24 1113.35 1301.63 1115.02 1303.28 1115.02Z" fill="white"/>
<path d="M1385.68 1115.02H1402.53C1404.24 1115.02 1405.57 1113.27 1405.57 1111.18V1103.42C1405.57 1101.25 1404.18 1099.58 1402.53 1099.58H1385.68C1383.96 1099.58 1382.64 1101.33 1382.64 1103.42V1111.18C1382.64 1113.35 1383.96 1115.02 1385.68 1115.02Z" fill="white"/>
<path d="M1358.19 1115.02H1375.04C1376.76 1115.02 1378.08 1113.27 1378.08 1111.18V1103.42C1378.08 1101.25 1376.69 1099.58 1375.04 1099.58H1358.19C1356.47 1099.58 1355.15 1101.33 1355.15 1103.42V1111.18C1355.15 1113.35 1356.54 1115.02 1358.19 1115.02Z" fill="white"/>
<path d="M1330.77 1115.02H1347.62C1349.33 1115.02 1350.66 1113.27 1350.66 1111.18V1103.42C1350.66 1101.25 1349.27 1099.58 1347.62 1099.58H1330.77C1329.05 1099.58 1327.73 1101.33 1327.73 1103.42V1111.18C1327.66 1113.35 1329.05 1115.02 1330.77 1115.02Z" fill="white"/>
<path d="M1303.28 1155.41H1320.13C1321.85 1155.41 1323.17 1153.66 1323.17 1151.57V1143.81C1323.17 1141.64 1321.78 1139.97 1320.13 1139.97H1303.28C1301.56 1139.97 1300.24 1141.72 1300.24 1143.81V1151.57C1300.24 1153.74 1301.63 1155.41 1303.28 1155.41Z" fill="white"/>
<path d="M1385.68 1155.41H1402.53C1404.24 1155.41 1405.57 1153.66 1405.57 1151.57V1143.81C1405.57 1141.64 1404.18 1139.97 1402.53 1139.97H1385.68C1383.96 1139.97 1382.64 1141.72 1382.64 1143.81V1151.57C1382.64 1153.74 1383.96 1155.41 1385.68 1155.41Z" fill="white"/>
<path d="M1358.19 1155.41H1375.04C1376.76 1155.41 1378.08 1153.66 1378.08 1151.57V1143.81C1378.08 1141.64 1376.69 1139.97 1375.04 1139.97H1358.19C1356.47 1139.97 1355.15 1141.72 1355.15 1143.81V1151.57C1355.15 1153.74 1356.54 1155.41 1358.19 1155.41Z" fill="white"/>
<path d="M1330.77 1155.41H1347.62C1349.33 1155.41 1350.66 1153.66 1350.66 1151.57V1143.81C1350.66 1141.64 1349.27 1139.97 1347.62 1139.97H1330.77C1329.05 1139.97 1327.73 1141.72 1327.73 1143.81V1151.57C1327.66 1153.74 1329.05 1155.41 1330.77 1155.41Z" fill="white"/>
</g>
</svg>
