<svg width="0" height="0" class="hidden">
  <symbol viewBox="0 0 1439 1191" fill="none" xmlns="http://www.w3.org/2000/svg" id="showcase-bg">
    <g opacity=".05">
      <path d="M656.662 733.249H252.211v446.111h404.451V733.249zm520.608-315.096h.99v-1.502l.14-.251-.14-.167v-2.503h-35.08v4.339h.79l15 22.114-13.94 20.945h-1.32v4.34h34.16v-4.34h-.99l-14.21-20.945 14.6-22.03zm-29.66 0h25.96l-12.88 19.36-13.08-19.36zm25.43 43.142h-24.38l12.09-18.191 12.29 18.191z"
        fill="#B2B0BE"></path>
      <path d="M1177.27 465.801h.99v-1.502l.14-.25-.14-.167v-2.503h-35.08v4.339h.79l15 22.113-13.94 20.946h-1.32v4.339h34.16v-4.339h-.99l-14.21-20.946 14.6-22.03zm-29.66 0h25.96l-12.88 19.36-13.08-19.36zm25.43 43.059h-24.38l12.09-18.191 12.29 18.191z"
        fill="#B2B0BE"></path>
      <path d="M1177.27 513.366h.99v-1.502l.14-.251-.14-.166v-2.504h-35.08v4.339h.79l15 22.114-13.94 20.945h-1.32v4.339h34.16v-4.172h-.99l-14.21-20.945 14.6-22.197zm-29.66 0h25.96l-12.88 19.36-13.08-19.36zm25.43 43.142h-24.38l12.09-18.192 12.29 18.192z"
        fill="#B2B0BE"></path>
      <path d="M1177.27 561.015h.99v-1.503l.14-.25-.14-.167v-2.503h-35.08v4.339h.79l15 22.113-13.94 20.946h-1.32v4.339h34.16v-4.256h-.99l-14.21-20.945 14.6-22.113zm-29.66 0h25.96l-12.88 19.359-13.08-19.359zm25.43 43.058h-24.38l12.09-18.191 12.29 18.191z"
        fill="#B2B0BE"></path>
      <path d="M1177.27 608.579h.99v-1.502l.14-.25-.14-.167v-2.503h-35.08v4.339h.79l15 22.113-13.94 20.946h-1.32v4.339h34.16v-4.339h-.99l-14.21-20.946 14.6-22.03zm-29.66 0h25.96l-12.88 19.36-13.08-19.36zm25.43 43.142h-24.38l12.09-18.191 12.29 18.191z"
        fill="#B2B0BE"></path>
      <path d="M1177.27 656.227h.99v-1.502l.14-.25-.14-.167v-2.503h-35.08v4.339h.79l15 22.113-13.94 20.946h-1.32v4.339h34.16v-4.339h-.99l-14.21-20.946 14.6-22.03zm-29.66 0h25.96l-12.88 19.36-13.08-19.36zm25.43 43.059h-24.38l12.09-18.191 12.29 18.191z"
        fill="#B2B0BE"></path>
      <path d="M1177.27 703.792h.99v-1.502l.14-.251-.14-.166v-2.504h-35.08v4.339h.79l15 22.114-13.94 20.945h-1.32v4.339h34.16v-4.339h-.99l-14.21-20.945 14.6-22.03zm-29.66 0h25.96l-12.88 19.36-13.08-19.36zm25.43 43.142h-24.38l12.09-18.191 12.29 18.191z"
        fill="#B2B0BE"></path>
      <path d="M1177.27 751.44h.99v-1.502l.14-.25-.14-.167v-2.503h-35.08v4.339h.79l15 22.113-13.94 20.945h-1.32v4.34h34.16v-4.34h-.99l-14.21-20.945 14.6-22.03zm-29.66 0h25.96l-12.88 19.36-13.08-19.36zm25.43 43.059h-24.38l12.09-18.192 12.29 18.192z"
        fill="#B2B0BE"></path>
      <path d="M1177.27 799.005h.99v-1.502l.14-.25-.14-.167v-2.503h-35.08v4.339h.79l15 22.113-13.94 20.945h-1.32v4.339h34.16v-4.339h-.99l-14.21-20.945 14.6-22.03zm-29.66 0h25.96l-12.88 19.36-13.08-19.36zm25.43 43.142h-24.38l12.09-18.191 12.29 18.191z"
        fill="#B2B0BE"></path>
      <path d="M1177.27 846.654h.99v-1.502l.14-.251-.14-.167v-2.503h-35.08v4.339h.79l15 22.114-13.94 20.945h-1.32v4.339h34.16v-4.339h-.99l-14.21-20.945 14.6-22.03zm-29.66 0h25.96l-12.88 19.359-13.08-19.359zm25.43 43.058h-24.38l12.09-18.191 12.29 18.191z"
        fill="#B2B0BE"></path>
      <path d="M1177.27 894.218h.99v-1.502l.14-.251-.14-.167v-2.503h-35.08v4.339h.79l15 22.114-13.94 20.945h-1.32v4.34h34.16v-4.34h-.99l-14.21-20.945 14.6-22.03zm-29.66 0h25.96l-12.88 19.36-13.08-19.36zm25.43 43.142h-24.38l12.09-18.192 12.29 18.192z"
        fill="#B2B0BE"></path>
      <path d="M1177.27 941.867h.99v-1.502l.14-.251-.14-.167v-2.503h-35.08v4.339h.79l15 22.114-13.94 20.945h-1.32v4.339h34.16v-4.339h-.99l-14.21-20.945 14.6-22.03zm-29.66 0h25.96l-12.88 19.359-13.08-19.359zm25.43 43.058h-24.38l12.09-18.191 12.29 18.191z"
        fill="#B2B0BE"></path>
      <path d="M1177.27 989.431h.99v-1.502l.14-.25-.14-.167v-2.504h-35.08v4.34h.79l15 22.112-13.94 20.95h-1.32v4.34h34.16v-4.34h-.99l-14.21-20.95 14.6-22.029zm-29.66 0h25.96l-12.88 19.359-13.08-19.359zm25.43 43.139h-24.38l12.09-18.19 12.29 18.19z"
        fill="#B2B0BE"></path>
      <path d="M1177.27 1037.08h.99v-1.5l.14-.25-.14-.17v-2.5h-35.08v4.34h.79l15 22.11-13.94 20.94h-1.32v4.34h34.16v-4.34h-.99l-14.21-20.94 14.6-22.03zm-29.66 0h25.96l-12.88 19.36-13.08-19.36zm25.43 43.06h-24.38l12.09-18.19 12.29 18.19zm-150.85-770.635h1.99V305.5c0-4.339 2.77-7.844 6.21-7.844 3.43 0 6.21 3.505 6.21 7.844v4.005h1.98V305.5c0-5.675-3.63-10.348-8.19-10.348-4.5 0-8.2 4.59-8.2 10.348v4.005zm1.92-28.539v-59.915c0-4.673 2.97-8.511 6.61-8.511 3.63 0 6.6 3.838 6.6 8.511v59.915c0 4.673-2.97 8.512-6.6 8.512-3.64 0-6.61-3.839-6.61-8.512zm1.85-59.915v59.915c0 3.338 2.11 6.092 4.69 6.092 2.58 0 4.69-2.754 4.69-6.092v-59.915c0-3.338-2.11-6.091-4.69-6.091-2.58 0-4.69 2.753-4.69 6.091z"
        fill="#B2B0BE"></path>
      <path d="M1028.39 300.29h4.09v-21.613h-4.09v21.613zm-.98-71.311h14.94c1.78 0 3.23-1.836 3.23-4.089v-61.167c0-2.253-1.45-4.089-3.23-4.089h-14.94c-1.78 0-3.23 1.836-3.23 4.089v61.167c0 2.253 1.45 4.089 3.23 4.089zm115.04-105.144h36.14v996.355h-36.14V123.835zm33.37 3.589h-30.46V1116.6h30.46V127.424z"
        fill="#B2B0BE"></path>
      <path d="M1158.9 202.276l-14.2 20.945h-.99v4.339h34.16v-4.339h-1.32l-13.95-20.945 15-22.114h.8v-4.339h-35.09v2.503l-.13.167.13.251v1.502h.99l14.6 22.03zm1.92-2.754l-12.88-19.36h25.96l-13.08 19.36zm-.07 5.507l12.1 18.192h-24.39l12.29-18.192z"
        fill="#B2B0BE"></path>
      <path d="M1158.9 249.84l-14.2 20.946h-.99v4.339h34.16v-4.339h-1.32l-13.95-20.946 15-22.113h.8v-4.339h-35.09v2.503l-.13.167.13.25v1.502h.99l14.6 22.03zm1.92-2.753l-12.88-19.36h25.96l-13.08 19.36zm-.07 5.591l12.1 18.191h-24.39l12.29-18.191z"
        fill="#B2B0BE"></path>
      <path d="M1158.9 297.489l-14.2 20.945h-.99v4.339h34.16v-4.339h-1.32l-13.95-20.945 15-22.114h.8v-4.339h-35.09v2.504l-.13.166.13.251v1.502h.99l14.6 22.03zm1.92-2.754l-12.88-19.36h25.96l-13.08 19.36zm-.07 5.508l12.1 18.191h-24.39l12.29-18.191z"
        fill="#B2B0BE"></path>
      <path d="M1158.9 345.053l-14.2 20.946h-.99v4.339h34.16v-4.339h-1.32l-13.95-20.946 15-22.113h.8v-4.256h-35.09v2.504l-.13.167.13.25v1.502h.99l14.6 21.946zm1.92-2.753l-12.88-19.36h25.96l-13.08 19.36zm-.07 5.591l12.1 18.191h-24.39l12.29-18.191z"
        fill="#B2B0BE"></path>
      <path d="M1158.9 392.702l-14.2 20.945h-.99v4.339h34.16v-4.339h-1.32l-13.95-20.945 15-22.114h.8v-4.339h-35.09v2.503l-.13.167.13.25v1.502h.99l14.6 22.031zm1.92-2.754l-12.88-19.36h25.96l-13.08 19.36zm-.07 5.507l12.1 18.192h-24.39l12.29-18.192zm13.15-380.601h-10.04c-1.59 0-2.84 1.585-2.84 3.588v105.393c0 2.003 1.25 3.589 2.84 3.589h10.04c1.59 0 2.84-1.586 2.84-3.589V18.442c0-2.003-1.25-3.588-2.84-3.588zm-7.2 3.588h4.43c1.58 0 2.84 1.585 2.84 3.588v29.207c0 2.002-1.26 3.588-2.84 3.588h-4.43c-1.58 0-2.84-1.586-2.84-3.588V22.03c0-2.003 1.26-3.588 2.84-3.588zm0 40.472h4.43c1.58 0 2.84 1.585 2.84 3.588v17.273c0 2.003-1.26 3.589-2.84 3.589h-4.43c-1.58 0-2.84-1.586-2.84-3.589V62.502c0-2.003 1.26-3.588 2.84-3.588zm4.36 64.921h-4.42c-1.59 0-2.85-1.585-2.85-3.588V91.041c0-2.003 1.26-3.588 2.85-3.588h4.42c1.59 0 2.84 1.585 2.84 3.588v29.206c0 2.003-1.25 3.588-2.84 3.588z"
        fill="#B2B0BE"></path>
      <path d="M942.506 165.726v-32.878c0-5.258 3.37-9.514 7.533-9.514h237.941c.53 0 1.06.084 1.58.251l108.5 29.791c3.44.918 5.95 4.84 5.95 9.346v3.087c0 5.258-3.37 9.514-7.54 9.514H950.039c-4.163 0-7.533-4.34-7.533-9.597zm7.533-36.467c-1.586 0-2.842 1.586-2.842 3.589v32.878c0 2.003 1.256 3.588 2.842 3.588h346.431c1.59 0 2.85-1.585 2.85-3.588v-3.088c0-1.669-.93-3.171-2.25-3.504l-108.5-29.791c-.2-.084-.39-.084-.59-.084H950.039z"
        fill="#B2B0BE"></path>
      <path d="M942.506 132.848v32.878c0 5.257 3.37 9.513 7.533 9.513h346.431c4.17 0 7.54-4.256 7.54-9.513v-3.088c0-4.422-2.51-8.344-5.95-9.346-.2-.083-108.36-29.707-108.5-29.79-1.58-.417 13.62-.167-239.521-.251-4.163.084-7.533 4.34-7.533 9.597zm4.691 30.207c0-31.876-.066-30.207.066-31.042l7.335 14.77c1.52 3.004-1.256 4.507-7.401 16.272zm246.263-32.21l8 15.938c1.45 3.004-1.13 4.089-9.32 19.61l-7.99-15.938c-.53-1.001-.47-2.336.06-3.338l9.25-16.272zm-5.48 38.469h-16.46l6.74-11.766c1-1.752 3.04-1.669 3.9.167l5.82 11.599zm-201.203-18.859c-1.454-3.004 1.123-4.172 9.316-19.61l7.997 15.938c.53 1.002.46 2.337-.07 3.338l-9.248 16.272-7.995-15.938zm-1.52-10.765c-.991 1.753-3.039 1.669-3.898-.166l-5.088-10.264h14.933l-5.947 10.43zm15.663-10.43h14.93l-5.95 10.43c-.99 1.753-3.04 1.669-3.9-.166l-5.08-10.264zm10.5 21.195c-.53-1.001-.46-2.336.07-3.338l9.25-16.272 7.99 15.938c.53 1.002.47 2.337-.06 3.338l-9.25 16.272-8-15.938zm14.14-21.195h14.94l-5.95 10.43c-.99 1.753-3.04 1.669-3.9-.166l-5.09-10.264zm10.58 21.195c-1.46-3.004 1.12-4.172 9.31-19.61l8 15.938c1.45 3.004-1.13 4.173-9.32 19.61l-7.99-15.938zm14.07-21.195h14.93l-5.94 10.43c-1 1.753-3.04 1.669-3.9-.166l-5.09-10.264zm10.57 21.195c-1.45-3.004 1.13-4.172 9.32-19.61l7.99 15.938c.53 1.002.47 2.337-.06 3.338l-9.25 16.272-8-15.938zm14.14-21.195h14.94l-5.95 10.43c-.99 1.753-3.04 1.669-3.9-.166l-5.09-10.264zm10.51 21.195c-.53-1.001-.46-2.336.06-3.338l9.25-16.272 8 15.938c.53 1.002.46 2.337-.07 3.338l-9.25 16.272-7.99-15.938zm14.14-21.195h14.93l-5.95 10.43c-.99 1.753-3.03 1.669-3.89-.166l-5.09-10.264zm10.57 21.195c-.53-1.001-.46-2.336.07-3.338l9.25-16.272 7.99 15.938c.53 1.002.46 2.337-.06 3.338l-9.25 16.272-8-15.938zm14.07-21.195h14.94l-5.95 10.43c-.99 1.753-3.04 1.669-3.9-.166l-5.09-10.264zm10.58 21.195c-.53-1.001-.47-2.336.06-3.338l9.25-16.272 8 15.938c1.45 3.004-1.12 4.173-9.32 19.61l-7.99-15.938zm14.14-21.195h14.93l-5.95 10.43c-.99 1.753-3.04 1.669-3.9-.166l-5.08-10.264zm27.81 17.523c.53 1.002.47 2.337-.06 3.338l-9.25 16.272-8-15.938c-.53-1.001-.46-2.336.07-3.338l9.25-16.272 7.99 15.938zm-13.41 22.531h-16.45l6.74-11.766c.99-1.752 3.04-1.669 3.9.167l5.81 11.599zm-24.71 0h-16.45l6.74-11.766c.99-1.752 3.04-1.669 3.89.167l5.82 11.599zm-24.65 0h-16.45l6.74-11.766c.99-1.752 3.04-1.669 3.9.167l5.81 11.599zm-24.64 0h-16.46l6.74-11.766c.99-1.752 3.04-1.669 3.9.167l5.82 11.599zm-24.72 0h-16.45l6.74-11.766c.99-1.752 3.04-1.669 3.9.167l5.81 11.599zm-24.64 0h-16.46l6.74-11.766c1-1.752 3.04-1.669 3.9.167l5.82 11.599zm-24.65 0h-16.451l6.741-11.766c.99-1.752 3.04-1.669 3.9.167l5.81 11.599zm-24.711 0h-16.453l6.74-11.766c.991-1.752 3.04-1.669 3.899.167l5.814 11.599zm-28.545-22.197l9.317-16.355c6.938 15.103 9.581 16.522 7.929 19.443l-9.316 16.355c-6.938-15.104-9.515-16.606-7.93-19.443zm-1.585-7.427c-.992 1.753-3.04 1.669-3.899-.166l-5.088-10.264h14.933l-5.946 10.43zm228.031-10.347l-5.88 10.347c-1 1.753-3.04 1.669-3.9-.166l-5.09-10.264c15.13.083 14.27 0 14.87.083zm21.27 5.841l-2.57 4.506c-1 1.753-3.04 1.669-3.9-.166l-3.57-7.093 10.04 2.753zm12.16 3.338l4.1 8.261c1.52 3.004-1.19 4.173-9.32 19.61l-7.99-15.938c-.53-1.001-.47-2.336.06-3.338l5.95-10.514 7.2 1.919zm8.52 2.337c-.66.167-1.32 0-1.85-.501l1.85.501zm20.09 5.507c0 .084 1.26 1.836.13 3.755l-9.25 16.272-7.99-15.938c-.53-1.001-.46-2.336.06-3.338l2.65-4.673 14.4 3.922zm23.26 6.426l-7.73 13.601c-7.93-16.439-8.59-16.105-8.33-18.024l16.06 4.423zm22.66 16.522h-4.49c-.2-1.168-.13-.584-6.41-13.351l11.5 3.17c3.04.835 2.05 5.591 2.25 6.593 0 2.002-1.33 3.588-2.85 3.588zm-26.23 0l6.68-11.766c.99-1.752 3.04-1.669 3.89.167l5.82 11.682h-16.39v-.083zm-24.71 0l6.74-11.766c.99-1.752 3.04-1.669 3.9.167l5.81 11.682h-16.45v-.083zm-24.65 0l6.68-11.766c.99-1.752 3.04-1.669 3.9.167l5.81 11.682h-16.39v-.083zm-24.64 0l6.74-11.766c.99-1.752 3.04-1.669 3.9.167l5.81 11.682h-16.45v-.083zm-246.201 0c-.199 0-.397 0-.529-.083l6.674-11.766c.991-1.753 3.039-1.669 3.898.166l5.815 11.683h-15.858z"
        fill="#B2B0BE"></path>
      <path d="M1271.37 282.969h4.69c1.58 0 2.9-1.669 2.9-3.672V176.908c0-2.003-1.32-3.672-2.9-3.672h-4.69c-1.59 0-2.91 1.669-2.91 3.672v102.389c0 2.003 1.32 3.672 2.91 3.672z" fill="#B2B0BE"></path>
      <path d="M1227.03 208.368h60.66c2.71 0 4.89-2.754 4.89-6.176v-10.931c0-3.422-2.18-6.175-4.89-6.175h-60.66c-2.71 0-4.89 2.753-4.89 6.175v10.931c0 3.422 2.18 6.176 4.89 6.176zm0 26.702h60.66c2.71 0 4.89-2.754 4.89-6.175v-10.931c0-3.422-2.18-6.175-4.89-6.175h-60.66c-2.71 0-4.89 2.753-4.89 6.175v10.931c0 3.421 2.18 6.175 4.89 6.175zm0 25.869h60.66c2.71 0 4.89-2.754 4.89-6.175v-10.932c0-3.421-2.18-6.175-4.89-6.175h-60.66c-2.71 0-4.89 2.754-4.89 6.175v10.932c0 3.421 2.18 6.175 4.89 6.175zm0 27.955h60.66c2.71 0 4.89-2.754 4.89-6.175v-10.932c0-3.421-2.18-6.175-4.89-6.175h-60.66c-2.71 0-4.89 2.754-4.89 6.175v10.932c0 3.421 2.18 6.175 4.89 6.175zm67.53-130.762c.66 0 1.32-.334 1.78-1.001.86-1.252.8-3.088-.2-4.172l-126.86-141.61-197.304 111.569c-1.189.667-1.718 2.42-1.189 3.922.528 1.502 1.916 2.169 3.105 1.502L1168.42 18.359l124.55 139.022c.46.501 1.06.751 1.59.751z"
        fill="#B2B0BE"></path>
      <path d="M1167.69 18.525h1.92c.73 0 1.32-.75 1.32-1.668V1.668c0-.918-.59-1.669-1.32-1.669h-1.92c-.72 0-1.32.751-1.32 1.669v15.188c0 .917.6 1.668 1.32 1.668zm-246.857 151.54h24.514v-26.619h-24.514c-5.815 0-10.506 5.924-10.506 13.268 0 7.426 4.691 13.351 10.506 13.351z"
        fill="#B2B0BE"></path>
      <path d="M928.828 189.174h.133c2.907 0 5.22-3.004 5.22-6.592v-19.61h-10.573v19.61c0 3.672 2.313 6.592 5.22 6.592z" fill="#B2B0BE"></path>
      <path d="M929.328 172.367l-.985 3.365 99.467 46.448.98-3.366-99.462-46.447zM1009.98 323h38.65v-14.77h-38.65V323zm-.8.023h39.71c6.54 0 11.89 6.76 11.89 15.021v1.919h-63.497v-1.919c-.066-8.345 5.287-15.021 11.897-15.021zm-12.492 16.941v44.059h64.822v-44.059h-64.822zm8.792 7.176c0-1.919 1.25-3.505 2.77-3.505h40.51c1.52 0 2.77 1.586 2.77 3.505v2.253c0 1.919-1.25 3.505-2.77 3.505h-40.51c-1.52 0-2.77-1.586-2.77-3.505v-2.253z"
        fill="#B2B0BE"></path>
      <path d="M437.488 1187.95h-72.881c-1.718 0-3.106-1.75-3.106-3.92V471.642c0-3.004 2.511-4.839 4.559-3.421l72.816 51.237c.991.667 1.586 2.002 1.586 3.421v661.231c.066 2.09-1.322 3.84-2.974 3.84zm128.848 0h-95.281c-1.718 0-3.106-1.75-3.106-3.92V599.066c0-2.17 1.388-3.922 3.106-3.922h95.281c1.718 0 3.106 1.752 3.106 3.922v585.044c0 2.09-1.388 3.84-3.106 3.84zm-40.504-592.806h-43.478c-1.718 0-3.106-1.752-3.106-3.922V531.14c0-2.169 1.388-3.922 3.106-3.922h43.478c1.718 0 3.105 1.753 3.105 3.922v60.082c-.066 2.17-1.453 3.922-3.105 3.922zm113.254.501h-68.059c-1.718 0-3.105-1.753-3.105-3.922V408.807c0-2.17 1.387-3.922 3.105-3.922h67.993l3.105 3.922v182.999c0 2.086-1.388 3.839-3.039 3.839zm221.882-352.814h-81.075l-3.105 3.922v192.178c0 2.17-1.388 3.922-3.106 3.922h-22.135c-1.718 0-3.106-1.752-3.106-3.922V278.629c0-2.169-1.387-3.922-3.105-3.922h-51.804c-1.718 0-3.105 1.753-3.105 3.922v905.401c0 2.17 1.387 3.92 3.105 3.92h177.81c1.718 0 3.106-1.75 3.106-3.92V261.022c0-1.001-.265-1.919-.793-2.67l-10.506-14.353c-.529-.751-1.322-1.168-2.181-1.168zM1103 705.043v32.628c0 2.17-1.38 3.922-3.1 3.922h-28.74c-1.72 0-3.11 1.752-3.11 3.922v438.595c0 2.17 1.39 3.92 3.11 3.92h137.1c1.72 0 3.11-1.75 3.11-3.92V705.043c0-2.169-1.39-3.922-3.11-3.922h-102.28c-1.59.084-2.98 1.836-2.98 3.922z"
        fill="#D8D7DF"></path>
      <path d="M874.514 285.389h-97.726v20.444h97.726v-20.444zm0 40.722h-97.726v20.444h97.726v-20.444zm0 40.722h-97.726v20.444h97.726v-20.444zm0 40.639h-97.726v20.445h97.726v-20.445zm0 40.722h-97.726v20.445h97.726v-20.445zm0 40.722h-97.726v20.445h97.726v-20.445zm0 40.722h-97.726v20.445h97.726v-20.445zm0 40.723h-97.726v20.444h97.726v-20.444zm0 40.638h-97.726v20.444h97.726v-20.444zm0 40.722h-97.726v20.445h97.726v-20.445zm0 40.722h-97.726v20.444h97.726v-20.444zm0 40.722h-97.726v20.444h97.726v-20.444zm0 40.723h-97.726v20.444h97.726v-20.444zm0 40.722h-97.726v20.444h97.726V814.61zm0 40.638h-97.726v20.444h97.726v-20.444zm0 40.722h-97.726v20.445h97.726V895.97zm0 40.723h-97.726v20.444h97.726v-20.444zm0 40.722h-97.726v20.444h97.726v-20.444zm0 40.725h-97.726v20.44h97.726v-20.44zm0 40.64h-97.726v20.44h97.726v-20.44zm0 40.72h-97.726v20.44h97.726v-20.44z"
        ></path>
      <path d="M393.614 496.426h-14.603c-1.718 0-3.105-1.752-3.105-3.922v-46.313c0-2.17 1.387-3.922 3.105-3.922h14.603c1.718 0 3.106 1.752 3.106 3.922v46.313c0 2.17-1.388 3.922-3.106 3.922z" fill="#D8D7DF"></path>
      <path d="M88.938 671.999v-46.981H29.272v46.981H0v515.951h122.571V671.999H88.938z" fill="#D9DAE6"></path>
      <path d="M735.358 688.521v-81.694H679.26v105.31h-29.073v-124.67h-88.608l-20.748 21.196v579.287h204.901V708.716l-10.374-20.195z" fill="#CDCCD4"></path>
      <path d="M994.574 710.635H856.013v477.315h138.561V710.635z" fill="#E7E8EC"></path>
      <path d="M966.293 668.577h-70.37v42.141h70.37v-42.141zm-16.321 0h-38.324v-39.22h24.779l13.545 17.107v22.113zm117.348-11.933v-16.022h-19.89l-1.85-83.196-1.85 83.196h-19.88v16.022c-5.09 2.17-8.73 7.344-8.73 13.352v517.954h60.79V669.996a14.082 14.082 0 0 0-8.59-13.352z"
        fill="#E7E8EC"></path>
      <path d="M844.185 1187.95h-79.159V578.705l17.841-22.531h43.544l17.84 22.531v609.245h-.066z" fill="#CDCCD4"></path>
      <path d="M650.187 622.014H540.831v23.282h109.356v-23.282zm0 34.964H540.831v23.282h109.356v-23.282zm0 34.881H540.831v23.282h109.356v-23.282zm0 34.964H540.831v23.282h109.356v-23.282zm0 34.965H540.831v23.281h109.356v-23.281zm0 34.88H540.831v23.282h109.356v-23.282zm0 34.965H540.831v23.281h109.356v-23.281zm0 34.964H540.831v23.282h109.356v-23.282zm0 34.881H540.831v23.281h109.356v-23.281zm0 34.965H540.831v23.281h109.356v-23.281zm0 34.963H540.831v23.283h109.356v-23.283zm0 34.884H540.831v23.28h109.356v-23.28zm0 34.96H540.831v23.28h109.356v-23.28zm0 34.97H540.831v23.28h109.356v-23.28zm0 34.88H540.831v23.28h109.356v-23.28zm0 34.96H540.831v23.28h109.356v-23.28z"
        fill="#9A999F"></path>
      <path d="M986.512 1190.04h138.958c2.11 0 3.83-2.17 3.83-4.84V659.064c0-2.67-1.72-4.84-3.83-4.84H986.512c-2.114 0-3.832 2.17-3.832 4.84V1185.2c0 2.67 1.718 4.84 3.832 4.84z" fill="#B2B0BE"></path>
      <path d="M985.984 1190.04h101.626c1.78 0 3.3-1.84 3.3-4.18V658.396c0-2.253-1.45-4.172-3.3-4.172H985.984c-1.784 0-3.304 1.836-3.304 4.172v527.464c0 2.26 1.52 4.18 3.304 4.18z" fill="#B2B0BE"></path>
      <path d="M1100.89 701.205H993.649c-3.436 0-6.211-3.505-6.211-7.844v-7.01c0-4.339 2.775-7.844 6.211-7.844h107.241c3.44 0 6.21 3.505 6.21 7.844v7.01c0 4.339-2.77 7.844-6.21 7.844zm0 34.38H993.649c-3.436 0-6.211-3.505-6.211-7.844v-7.01c0-4.339 2.775-7.844 6.211-7.844h107.241c3.44 0 6.21 3.505 6.21 7.844v7.01c0 4.339-2.77 7.844-6.21 7.844zm0 34.464H993.649c-3.436 0-6.211-3.505-6.211-7.844v-7.01c0-4.339 2.775-7.844 6.211-7.844h107.241c3.44 0 6.21 3.505 6.21 7.844v7.01c0 4.339-2.77 7.844-6.21 7.844zm0 34.463H993.649c-3.436 0-6.211-3.504-6.211-7.844v-7.009c0-4.34 2.775-7.844 6.211-7.844h107.241c3.44 0 6.21 3.504 6.21 7.844v7.009c0 4.34-2.77 7.844-6.21 7.844zm0 34.381H993.649c-3.436 0-6.211-3.505-6.211-7.844v-7.01c0-4.339 2.775-7.844 6.211-7.844h107.241c3.44 0 6.21 3.505 6.21 7.844v7.01c0 4.339-2.77 7.844-6.21 7.844zm0 34.464H993.649c-3.436 0-6.211-3.505-6.211-7.844v-7.01c0-4.339 2.775-7.844 6.211-7.844h107.241c3.44 0 6.21 3.505 6.21 7.844v7.01c0 4.339-2.77 7.844-6.21 7.844zm0 34.379H993.649c-3.436 0-6.211-3.504-6.211-7.844v-7.009c0-4.34 2.775-7.844 6.211-7.844h107.241c3.44 0 6.21 3.504 6.21 7.844v7.009c0 4.34-2.77 7.844-6.21 7.844zm0 34.464H993.649c-3.436 0-6.211-3.505-6.211-7.844v-7.009c0-4.34 2.775-7.844 6.211-7.844h107.241c3.44 0 6.21 3.504 6.21 7.844v7.009c0 4.339-2.77 7.844-6.21 7.844zm0 34.464H993.649c-3.436 0-6.211-3.505-6.211-7.844v-7.01c0-4.339 2.775-7.844 6.211-7.844h107.241c3.44 0 6.21 3.505 6.21 7.844v7.01c0 4.339-2.77 7.844-6.21 7.844zm0 34.376H993.649c-3.436 0-6.211-3.5-6.211-7.84v-7.011c0-4.339 2.775-7.844 6.211-7.844h107.241c3.44 0 6.21 3.505 6.21 7.844v7.011c0 4.34-2.77 7.84-6.21 7.84zm0 34.47H993.649c-3.436 0-6.211-3.51-6.211-7.85v-7.01c0-4.34 2.775-7.84 6.211-7.84h107.241c3.44 0 6.21 3.5 6.21 7.84v7.01c0 4.34-2.77 7.85-6.21 7.85zm0 34.38H993.649c-3.436 0-6.211-3.51-6.211-7.85v-7.01c0-4.34 2.775-7.84 6.211-7.84h107.241c3.44 0 6.21 3.5 6.21 7.84v7.01c0 4.43-2.77 7.85-6.21 7.85zm0 34.46H993.649c-3.436 0-6.211-3.5-6.211-7.84v-7.01c0-4.34 2.775-7.85 6.211-7.85h107.241c3.44 0 6.21 3.51 6.21 7.85v7.01c0 4.34-2.77 7.84-6.21 7.84zm0 34.46H993.649c-3.436 0-6.211-3.5-6.211-7.84v-7.01c0-4.34 2.775-7.84 6.211-7.84h107.241c3.44 0 6.21 3.5 6.21 7.84v7.01c0 4.34-2.77 7.84-6.21 7.84zm0 34.38H993.649c-3.436 0-6.211-3.5-6.211-7.84v-7.01c0-4.34 2.775-7.84 6.211-7.84h107.241c3.44 0 6.21 3.5 6.21 7.84v7.01c0 4.34-2.77 7.84-6.21 7.84z"
        ></path>
      <path d="M331.701 1187.95h-215.87c-2.313 0-4.229-2.42-4.229-5.34V603.238c0-2.921 1.916-5.341 4.229-5.341h215.87c2.312 0 4.229 2.42 4.229 5.341v579.372c0 3-1.917 5.34-4.229 5.34z" fill="#C8C6D3"></path>
      <path d="M138.627 677.923h-11.761c-2.313 0-4.229-2.42-4.229-5.341v-41.807c0-2.92 1.916-5.34 4.229-5.34h11.761c2.313 0 4.229 2.42 4.229 5.34v41.724c0 3.004-1.916 5.424-4.229 5.424zm34.624 0h-2.842c-2.312 0-4.228-2.42-4.228-5.341v-41.807c0-2.92 1.916-5.34 4.228-5.34h2.842c2.312 0 4.229 2.42 4.229 5.34v41.724c0 3.004-1.917 5.424-4.229 5.424zm51.407 0h-11.761c-2.313 0-4.229-2.42-4.229-5.341v-41.807c0-2.92 1.916-5.34 4.229-5.34h11.761c2.313 0 4.229 2.42 4.229 5.34v41.724c0 3.004-1.916 5.424-4.229 5.424zm86.691 0h-11.761c-2.313 0-4.229-2.42-4.229-5.341v-41.807c0-2.92 1.916-5.34 4.229-5.34h11.761c2.313 0 4.229 2.42 4.229 5.34v41.724c0 3.004-1.85 5.424-4.229 5.424zm0 60.666h-11.761c-2.313 0-4.229-2.419-4.229-5.34v-41.807c0-2.921 1.916-5.341 4.229-5.341h11.761c2.313 0 4.229 2.42 4.229 5.341v41.807c0 3.004-1.85 5.34-4.229 5.34zm0 60.75h-11.761c-2.313 0-4.229-2.42-4.229-5.341v-41.807c0-2.92 1.916-5.34 4.229-5.34h11.761c2.313 0 4.229 2.42 4.229 5.34v41.807c0 3.004-1.85 5.341-4.229 5.341zm0 60.75h-11.761c-2.313 0-4.229-2.42-4.229-5.341v-41.807c0-2.921 1.916-5.341 4.229-5.341h11.761c2.313 0 4.229 2.42 4.229 5.341v41.807c0 2.921-1.85 5.341-4.229 5.341zm0 60.749h-11.761c-2.313 0-4.229-2.42-4.229-5.341V873.69c0-2.92 1.916-5.34 4.229-5.34h11.761c2.313 0 4.229 2.42 4.229 5.34v41.807c0 2.921-1.85 5.341-4.229 5.341zm0 60.749h-11.761c-2.313 0-4.229-2.42-4.229-5.34V934.44c0-2.921 1.916-5.341 4.229-5.341h11.761c2.313 0 4.229 2.42 4.229 5.341v41.807c0 2.92-1.85 5.34-4.229 5.34zm0 60.753h-11.761c-2.313 0-4.229-2.42-4.229-5.34v-41.811c0-2.921 1.916-5.341 4.229-5.341h11.761c2.313 0 4.229 2.42 4.229 5.341V1037c0 2.92-1.85 5.34-4.229 5.34zm0 60.75h-11.761c-2.313 0-4.229-2.42-4.229-5.35v-41.8c0-2.92 1.916-5.34 4.229-5.34h11.761c2.313 0 4.229 2.42 4.229 5.34v41.8c0 2.93-1.85 5.35-4.229 5.35zm0 60.75h-11.761c-2.313 0-4.229-2.42-4.229-5.35v-41.8c0-2.92 1.916-5.34 4.229-5.34h11.761c2.313 0 4.229 2.42 4.229 5.34v41.8c0 2.93-1.85 5.35-4.229 5.35zm-52.067-485.917h-2.842c-2.312 0-4.228-2.42-4.228-5.341v-41.807c0-2.92 1.916-5.34 4.228-5.34h2.842c2.312 0 4.229 2.42 4.229 5.34v41.724c0 3.004-1.917 5.424-4.229 5.424zm-34.624 60.666h-11.761c-2.313 0-4.229-2.419-4.229-5.34v-41.807c0-2.921 1.916-5.341 4.229-5.341h11.761c2.313 0 4.229 2.42 4.229 5.341v41.807c0 3.004-1.916 5.34-4.229 5.34zm34.624 0h-2.842c-2.312 0-4.228-2.419-4.228-5.34v-41.807c0-2.921 1.916-5.341 4.228-5.341h2.842c2.312 0 4.229 2.42 4.229 5.341v41.807c0 3.004-1.917 5.34-4.229 5.34zm-34.624 60.75h-11.761c-2.313 0-4.229-2.42-4.229-5.341v-41.807c0-2.92 1.916-5.34 4.229-5.34h11.761c2.313 0 4.229 2.42 4.229 5.34v41.807c0 3.004-1.916 5.341-4.229 5.341zm34.624 0h-2.842c-2.312 0-4.228-2.42-4.228-5.341v-41.807c0-2.92 1.916-5.34 4.228-5.34h2.842c2.312 0 4.229 2.42 4.229 5.34v41.807c0 3.004-1.917 5.341-4.229 5.341zm-34.624 60.75h-11.761c-2.313 0-4.229-2.42-4.229-5.341v-41.807c0-2.921 1.916-5.341 4.229-5.341h11.761c2.313 0 4.229 2.42 4.229 5.341v41.807c0 2.921-1.916 5.341-4.229 5.341zm34.624 0h-2.842c-2.312 0-4.228-2.42-4.228-5.341v-41.807c0-2.921 1.916-5.341 4.228-5.341h2.842c2.312 0 4.229 2.42 4.229 5.341v41.807c0 2.921-1.917 5.341-4.229 5.341zm-34.624 60.749h-11.761c-2.313 0-4.229-2.42-4.229-5.341V873.69c0-2.92 1.916-5.34 4.229-5.34h11.761c2.313 0 4.229 2.42 4.229 5.34v41.807c0 2.921-1.916 5.341-4.229 5.341zm34.624 0h-2.842c-2.312 0-4.228-2.42-4.228-5.341V873.69c0-2.92 1.916-5.34 4.228-5.34h2.842c2.312 0 4.229 2.42 4.229 5.34v41.807c0 2.921-1.917 5.341-4.229 5.341zm-34.624 60.749h-11.761c-2.313 0-4.229-2.42-4.229-5.34V934.44c0-2.921 1.916-5.341 4.229-5.341h11.761c2.313 0 4.229 2.42 4.229 5.341v41.807c0 2.92-1.916 5.34-4.229 5.34zm34.624 0h-2.842c-2.312 0-4.228-2.42-4.228-5.34V934.44c0-2.921 1.916-5.341 4.228-5.341h2.842c2.312 0 4.229 2.42 4.229 5.341v41.807c0 2.92-1.917 5.34-4.229 5.34zm-34.624 60.753h-11.761c-2.313 0-4.229-2.42-4.229-5.34v-41.811c0-2.921 1.916-5.341 4.229-5.341h11.761c2.313 0 4.229 2.42 4.229 5.341V1037c0 2.92-1.916 5.34-4.229 5.34zm34.624 0h-2.842c-2.312 0-4.228-2.42-4.228-5.34v-41.811c0-2.921 1.916-5.341 4.228-5.341h2.842c2.312 0 4.229 2.42 4.229 5.341V1037c0 2.92-1.917 5.34-4.229 5.34zm-34.624 60.75h-11.761c-2.313 0-4.229-2.42-4.229-5.35v-41.8c0-2.92 1.916-5.34 4.229-5.34h11.761c2.313 0 4.229 2.42 4.229 5.34v41.8c0 2.93-1.916 5.35-4.229 5.35zm34.624 0h-2.842c-2.312 0-4.228-2.42-4.228-5.35v-41.8c0-2.92 1.916-5.34 4.228-5.34h2.842c2.312 0 4.229 2.42 4.229 5.34v41.8c0 2.93-1.917 5.35-4.229 5.35zm-34.624 60.75h-11.761c-2.313 0-4.229-2.42-4.229-5.35v-41.8c0-2.92 1.916-5.34 4.229-5.34h11.761c2.313 0 4.229 2.42 4.229 5.34v41.8c0 2.93-1.916 5.35-4.229 5.35zm34.624 0h-2.842c-2.312 0-4.228-2.42-4.228-5.35v-41.8c0-2.92 1.916-5.34 4.228-5.34h2.842c2.312 0 4.229 2.42 4.229 5.34v41.8c0 2.93-1.917 5.35-4.229 5.35zM138.627 738.589h-11.761c-2.313 0-4.229-2.419-4.229-5.34v-41.807c0-2.921 1.916-5.341 4.229-5.341h11.761c2.313 0 4.229 2.42 4.229 5.341v41.807c0 3.004-1.916 5.34-4.229 5.34zm34.624 0h-2.842c-2.312 0-4.228-2.419-4.228-5.34v-41.807c0-2.921 1.916-5.341 4.228-5.341h2.842c2.312 0 4.229 2.42 4.229 5.341v41.807c0 3.004-1.917 5.34-4.229 5.34zm-34.624 60.75h-11.761c-2.313 0-4.229-2.42-4.229-5.341v-41.807c0-2.92 1.916-5.34 4.229-5.34h11.761c2.313 0 4.229 2.42 4.229 5.34v41.807c0 3.004-1.916 5.341-4.229 5.341zm34.624 0h-2.842c-2.312 0-4.228-2.42-4.228-5.341v-41.807c0-2.92 1.916-5.34 4.228-5.34h2.842c2.312 0 4.229 2.42 4.229 5.34v41.807c0 3.004-1.917 5.341-4.229 5.341zm-34.624 60.75h-11.761c-2.313 0-4.229-2.42-4.229-5.341v-41.807c0-2.921 1.916-5.341 4.229-5.341h11.761c2.313 0 4.229 2.42 4.229 5.341v41.807c0 2.921-1.916 5.341-4.229 5.341zm34.624 0h-2.842c-2.312 0-4.228-2.42-4.228-5.341v-41.807c0-2.921 1.916-5.341 4.228-5.341h2.842c2.312 0 4.229 2.42 4.229 5.341v41.807c0 2.921-1.917 5.341-4.229 5.341zm-34.624 60.749h-11.761c-2.313 0-4.229-2.42-4.229-5.341V873.69c0-2.92 1.916-5.34 4.229-5.34h11.761c2.313 0 4.229 2.42 4.229 5.34v41.807c0 2.921-1.916 5.341-4.229 5.341zm34.624 0h-2.842c-2.312 0-4.228-2.42-4.228-5.341V873.69c0-2.92 1.916-5.34 4.228-5.34h2.842c2.312 0 4.229 2.42 4.229 5.34v41.807c0 2.921-1.917 5.341-4.229 5.341zm-34.624 60.749h-11.761c-2.313 0-4.229-2.42-4.229-5.34V934.44c0-2.921 1.916-5.341 4.229-5.341h11.761c2.313 0 4.229 2.42 4.229 5.341v41.807c0 2.92-1.916 5.34-4.229 5.34zm34.624 0h-2.842c-2.312 0-4.228-2.42-4.228-5.34V934.44c0-2.921 1.916-5.341 4.228-5.341h2.842c2.312 0 4.229 2.42 4.229 5.341v41.807c0 2.92-1.917 5.34-4.229 5.34zm-34.624 60.753h-11.761c-2.313 0-4.229-2.42-4.229-5.34v-41.811c0-2.921 1.916-5.341 4.229-5.341h11.761c2.313 0 4.229 2.42 4.229 5.341V1037c0 2.92-1.916 5.34-4.229 5.34zm34.624 0h-2.842c-2.312 0-4.228-2.42-4.228-5.34v-41.811c0-2.921 1.916-5.341 4.228-5.341h2.842c2.312 0 4.229 2.42 4.229 5.341V1037c0 2.92-1.917 5.34-4.229 5.34zm-34.624 60.75h-11.761c-2.313 0-4.229-2.42-4.229-5.35v-41.8c0-2.92 1.916-5.34 4.229-5.34h11.761c2.313 0 4.229 2.42 4.229 5.34v41.8c0 2.93-1.916 5.35-4.229 5.35zm34.624 0h-2.842c-2.312 0-4.228-2.42-4.228-5.35v-41.8c0-2.92 1.916-5.34 4.228-5.34h2.842c2.312 0 4.229 2.42 4.229 5.34v41.8c0 2.93-1.917 5.35-4.229 5.35zm-34.624 60.75h-11.761c-2.313 0-4.229-2.42-4.229-5.35v-41.8c0-2.92 1.916-5.34 4.229-5.34h11.761c2.313 0 4.229 2.42 4.229 5.34v41.8c0 2.93-1.916 5.35-4.229 5.35zm34.624 0h-2.842c-2.312 0-4.228-2.42-4.228-5.35v-41.8c0-2.92 1.916-5.34 4.228-5.34h2.842c2.312 0 4.229 2.42 4.229 5.34v41.8c0 2.93-1.917 5.35-4.229 5.35z"
        ></path>
      <path d="M862.488 1190.04h135.72c2.112 0 3.762-2.17 3.762-4.76V929.516c0-2.671-1.71-4.757-3.762-4.757h-135.72c-2.114 0-3.766 2.17-3.766 4.757V1185.2c0 2.67 1.718 4.84 3.766 4.84z" fill="#A09DAD"></path>
      <path d="M978.584 1186.78V927.931c0-1.753-2.511-3.171-5.683-3.171h23.391c3.106 0 5.678 1.418 5.678 3.171v258.849c0 1.76-2.506 3.17-5.678 3.17h-23.391c3.172.09 5.683-1.33 5.683-3.17z" fill="#9A999F"></path>
      <path d="M866.321 959.557h16.849c1.718 0 3.04-1.752 3.04-3.839v-7.76c0-2.17-1.388-3.839-3.04-3.839h-16.849c-1.718 0-3.04 1.753-3.04 3.839v7.76c0 2.087 1.388 3.839 3.04 3.839zm82.396 0h16.85c1.718 0 3.039-1.752 3.039-3.839v-7.76c0-2.17-1.388-3.839-3.039-3.839h-16.85c-1.718 0-3.039 1.753-3.039 3.839v7.76c0 2.087 1.321 3.839 3.039 3.839zm-27.487 0h16.849c1.718 0 3.039-1.752 3.039-3.839v-7.76c0-2.17-1.387-3.839-3.039-3.839H921.23c-1.718 0-3.04 1.753-3.04 3.839v7.76c0 2.087 1.388 3.839 3.04 3.839zm-27.422 0h16.849c1.718 0 3.04-1.752 3.04-3.839v-7.76c0-2.17-1.388-3.839-3.04-3.839h-16.849c-1.718 0-3.039 1.753-3.039 3.839v7.76c0 2.087 1.321 3.839 3.039 3.839zm-27.487 40.389h16.849c1.718 0 3.04-1.752 3.04-3.838v-7.761c0-2.17-1.388-3.839-3.04-3.839h-16.849c-1.718 0-3.04 1.753-3.04 3.839v7.761c0 2.169 1.388 3.838 3.04 3.838zm82.396 0h16.85c1.718 0 3.039-1.752 3.039-3.838v-7.761c0-2.17-1.388-3.839-3.039-3.839h-16.85c-1.718 0-3.039 1.753-3.039 3.839v7.761c0 2.169 1.321 3.838 3.039 3.838zm-27.487 0h16.849c1.718 0 3.039-1.752 3.039-3.838v-7.761c0-2.17-1.387-3.839-3.039-3.839H921.23c-1.718 0-3.04 1.753-3.04 3.839v7.761c0 2.169 1.388 3.838 3.04 3.838zm-27.422 0h16.849c1.718 0 3.04-1.752 3.04-3.838v-7.761c0-2.17-1.388-3.839-3.04-3.839h-16.849c-1.718 0-3.039 1.753-3.039 3.839v7.761c0 2.169 1.321 3.838 3.039 3.838zm-27.487 40.474h16.849c1.718 0 3.04-1.75 3.04-3.84v-7.76c0-2.17-1.388-3.84-3.04-3.84h-16.849c-1.718 0-3.04 1.75-3.04 3.84v7.76c0 2.09 1.388 3.84 3.04 3.84zm82.396 0h16.85c1.718 0 3.039-1.75 3.039-3.84v-7.76c0-2.17-1.388-3.84-3.039-3.84h-16.85c-1.718 0-3.039 1.75-3.039 3.84v7.76c0 2.09 1.321 3.84 3.039 3.84zm-27.487 0h16.849c1.718 0 3.039-1.75 3.039-3.84v-7.76c0-2.17-1.387-3.84-3.039-3.84H921.23c-1.718 0-3.04 1.75-3.04 3.84v7.76c0 2.09 1.388 3.84 3.04 3.84zm-27.422 0h16.849c1.718 0 3.04-1.75 3.04-3.84v-7.76c0-2.17-1.388-3.84-3.04-3.84h-16.849c-1.718 0-3.039 1.75-3.039 3.84v7.76c0 2.09 1.321 3.84 3.039 3.84zm-27.487 40.39h16.849c1.718 0 3.04-1.76 3.04-3.84v-7.76c0-2.17-1.388-3.84-3.04-3.84h-16.849c-1.718 0-3.04 1.75-3.04 3.84v7.76c0 2.08 1.388 3.84 3.04 3.84zm82.396 0h16.85c1.718 0 3.039-1.76 3.039-3.84v-7.76c0-2.17-1.388-3.84-3.039-3.84h-16.85c-1.718 0-3.039 1.75-3.039 3.84v7.76c0 2.08 1.321 3.84 3.039 3.84zm-27.487 0h16.849c1.718 0 3.039-1.76 3.039-3.84v-7.76c0-2.17-1.387-3.84-3.039-3.84H921.23c-1.718 0-3.04 1.75-3.04 3.84v7.76c0 2.08 1.388 3.84 3.04 3.84zm-27.422 0h16.849c1.718 0 3.04-1.76 3.04-3.84v-7.76c0-2.17-1.388-3.84-3.04-3.84h-16.849c-1.718 0-3.039 1.75-3.039 3.84v7.76c0 2.08 1.321 3.84 3.039 3.84zm-27.487 40.38h16.849c1.718 0 3.04-1.75 3.04-3.83v-7.76c0-2.17-1.388-3.84-3.04-3.84h-16.849c-1.718 0-3.04 1.75-3.04 3.84v7.76c0 2.08 1.388 3.83 3.04 3.83zm82.396 0h16.85c1.718 0 3.039-1.75 3.039-3.83v-7.76c0-2.17-1.388-3.84-3.039-3.84h-16.85c-1.718 0-3.039 1.75-3.039 3.84v7.76c0 2.08 1.321 3.83 3.039 3.83zm-27.487 0h16.849c1.718 0 3.039-1.75 3.039-3.83v-7.76c0-2.17-1.387-3.84-3.039-3.84H921.23c-1.718 0-3.04 1.75-3.04 3.84v7.76c0 2.08 1.388 3.83 3.04 3.83zm-27.422 0h16.849c1.718 0 3.04-1.75 3.04-3.83v-7.76c0-2.17-1.388-3.84-3.04-3.84h-16.849c-1.718 0-3.039 1.75-3.039 3.84v7.76c0 2.08 1.321 3.83 3.039 3.83zm-27.487 40.39h16.849c1.718 0 3.04-1.75 3.04-3.84v-7.76c0-2.17-1.388-3.84-3.04-3.84h-16.849c-1.718 0-3.04 1.76-3.04 3.84v7.76c0 2.17 1.388 3.84 3.04 3.84zm82.396 0h16.85c1.718 0 3.039-1.75 3.039-3.84v-7.76c0-2.17-1.388-3.84-3.039-3.84h-16.85c-1.718 0-3.039 1.76-3.039 3.84v7.76c0 2.17 1.321 3.84 3.039 3.84zm-27.487 0h16.849c1.718 0 3.039-1.75 3.039-3.84v-7.76c0-2.17-1.387-3.84-3.039-3.84H921.23c-1.718 0-3.04 1.76-3.04 3.84v7.76c0 2.17 1.388 3.84 3.04 3.84zm-27.422 0h16.849c1.718 0 3.04-1.75 3.04-3.84v-7.76c0-2.17-1.388-3.84-3.04-3.84h-16.849c-1.718 0-3.039 1.76-3.039 3.84v7.76c0 2.17 1.321 3.84 3.039 3.84z"
        ></path>
      <path d="M1388.91 1190.04h-260.8c-2.84 0-5.15-2.92-5.15-6.51V467.888c0-3.589 2.31-6.509 5.15-6.509h260.8c2.85 0 5.16 2.92 5.16 6.509v715.642c0 3.59-2.31 6.51-5.16 6.51z" fill="#B2B0BE"></path>
      <path d="M1342.53 1190.04h-214.95c-2.57 0-4.69-2.67-4.69-5.93V467.303c0-3.254 2.12-5.924 4.69-5.924h214.95c2.58 0 4.69 2.67 4.69 5.924v716.807c.07 3.26-2.05 5.93-4.69 5.93z" fill="#9A999F"></path>
      <path d="M1322.18 560.097h-10.84c-2.58 0-4.69-2.671-4.69-5.925v-52.989c0-3.254 2.11-5.925 4.69-5.925h10.84c2.57 0 4.69 2.671 4.69 5.925v52.989c.07 3.254-2.05 5.925-4.69 5.925zm0 75.018h-10.84c-2.58 0-4.69-2.67-4.69-5.925v-52.988c0-3.255 2.11-5.925 4.69-5.925h10.84c2.57 0 4.69 2.67 4.69 5.925v52.988c.07 3.255-2.05 5.925-4.69 5.925zm0 75.019h-10.84c-2.58 0-4.69-2.67-4.69-5.925V651.22c0-3.254 2.11-5.925 4.69-5.925h10.84c2.57 0 4.69 2.671 4.69 5.925v52.989c.07 3.255-2.05 5.925-4.69 5.925zm0 75.019h-10.84c-2.58 0-4.69-2.67-4.69-5.925v-52.989c0-3.254 2.11-5.925 4.69-5.925h10.84c2.57 0 4.69 2.671 4.69 5.925v52.989c.07 3.255-2.05 5.925-4.69 5.925zm0 75.018h-10.84c-2.58 0-4.69-2.67-4.69-5.924v-52.989c0-3.255 2.11-5.925 4.69-5.925h10.84c2.57 0 4.69 2.67 4.69 5.925v52.989c.07 3.254-2.05 5.924-4.69 5.924zm0 74.936h-10.84c-2.58 0-4.69-2.67-4.69-5.925v-52.989c0-3.254 2.11-5.925 4.69-5.925h10.84c2.57 0 4.69 2.671 4.69 5.925v52.989c.07 3.338-2.05 5.925-4.69 5.925zm0 75.023h-10.84c-2.58 0-4.69-2.67-4.69-5.93v-52.988c0-3.254 2.11-5.924 4.69-5.924h10.84c2.57 0 4.69 2.67 4.69 5.924v52.988c.07 3.26-2.05 5.93-4.69 5.93zm0 75.01h-10.84c-2.58 0-4.69-2.67-4.69-5.92v-52.99c0-3.25 2.11-5.92 4.69-5.92h10.84c2.57 0 4.69 2.67 4.69 5.92v52.99c.07 3.25-2.05 5.92-4.69 5.92zm0 75.02h-10.84c-2.58 0-4.69-2.67-4.69-5.92v-52.99c0-3.25 2.11-5.93 4.69-5.93h10.84c2.57 0 4.69 2.68 4.69 5.93v52.99c.07 3.25-2.05 5.92-4.69 5.92zm-52.07-600.063h-1.92c-2.57 0-4.69-2.671-4.69-5.925v-52.989c0-3.254 2.12-5.925 4.69-5.925h1.92c2.58 0 4.69 2.671 4.69 5.925v52.989c0 3.254-2.11 5.925-4.69 5.925zm-34.62 75.018h-10.84c-2.58 0-4.69-2.67-4.69-5.925v-52.988c0-3.255 2.11-5.925 4.69-5.925h10.84c2.57 0 4.69 2.67 4.69 5.925v52.988c0 3.255-2.12 5.925-4.69 5.925zm34.62 0h-1.92c-2.57 0-4.69-2.67-4.69-5.925v-52.988c0-3.255 2.12-5.925 4.69-5.925h1.92c2.58 0 4.69 2.67 4.69 5.925v52.988c0 3.255-2.11 5.925-4.69 5.925zm-34.62 75.019h-10.84c-2.58 0-4.69-2.67-4.69-5.925V651.22c0-3.254 2.11-5.925 4.69-5.925h10.84c2.57 0 4.69 2.671 4.69 5.925v52.989c0 3.255-2.12 5.925-4.69 5.925zm34.62 0h-1.92c-2.57 0-4.69-2.67-4.69-5.925V651.22c0-3.254 2.12-5.925 4.69-5.925h1.92c2.58 0 4.69 2.671 4.69 5.925v52.989c0 3.255-2.11 5.925-4.69 5.925zm-34.62 75.019h-10.84c-2.58 0-4.69-2.67-4.69-5.925v-52.989c0-3.254 2.11-5.925 4.69-5.925h10.84c2.57 0 4.69 2.671 4.69 5.925v52.989c0 3.255-2.12 5.925-4.69 5.925zm34.62 0h-1.92c-2.57 0-4.69-2.67-4.69-5.925v-52.989c0-3.254 2.12-5.925 4.69-5.925h1.92c2.58 0 4.69 2.671 4.69 5.925v52.989c0 3.255-2.11 5.925-4.69 5.925zm-34.62 75.018h-10.84c-2.58 0-4.69-2.67-4.69-5.924v-52.989c0-3.255 2.11-5.925 4.69-5.925h10.84c2.57 0 4.69 2.67 4.69 5.925v52.989c0 3.254-2.12 5.924-4.69 5.924zm34.62 0h-1.92c-2.57 0-4.69-2.67-4.69-5.924v-52.989c0-3.255 2.12-5.925 4.69-5.925h1.92c2.58 0 4.69 2.67 4.69 5.925v52.989c0 3.254-2.11 5.924-4.69 5.924zm-34.62 74.936h-10.84c-2.58 0-4.69-2.67-4.69-5.925v-52.989c0-3.254 2.11-5.925 4.69-5.925h10.84c2.57 0 4.69 2.671 4.69 5.925v52.989c0 3.338-2.12 5.925-4.69 5.925zm34.62 0h-1.92c-2.57 0-4.69-2.67-4.69-5.925v-52.989c0-3.254 2.12-5.925 4.69-5.925h1.92c2.58 0 4.69 2.671 4.69 5.925v52.989c0 3.338-2.11 5.925-4.69 5.925zm-34.62 75.023h-10.84c-2.58 0-4.69-2.67-4.69-5.93v-52.988c0-3.254 2.11-5.924 4.69-5.924h10.84c2.57 0 4.69 2.67 4.69 5.924v52.988c0 3.26-2.12 5.93-4.69 5.93zm34.62 0h-1.92c-2.57 0-4.69-2.67-4.69-5.93v-52.988c0-3.254 2.12-5.924 4.69-5.924h1.92c2.58 0 4.69 2.67 4.69 5.924v52.988c0 3.26-2.11 5.93-4.69 5.93zm-34.62 75.01h-10.84c-2.58 0-4.69-2.67-4.69-5.92v-52.99c0-3.25 2.11-5.92 4.69-5.92h10.84c2.57 0 4.69 2.67 4.69 5.92v52.99c0 3.25-2.12 5.92-4.69 5.92zm34.62 0h-1.92c-2.57 0-4.69-2.67-4.69-5.92v-52.99c0-3.25 2.12-5.92 4.69-5.92h1.92c2.58 0 4.69 2.67 4.69 5.92v52.99c0 3.25-2.11 5.92-4.69 5.92zm-34.62 75.02h-10.84c-2.58 0-4.69-2.67-4.69-5.92v-52.99c0-3.25 2.11-5.93 4.69-5.93h10.84c2.57 0 4.69 2.68 4.69 5.93v52.99c0 3.25-2.12 5.92-4.69 5.92zm34.62 0h-1.92c-2.57 0-4.69-2.67-4.69-5.92v-52.99c0-3.25 2.12-5.93 4.69-5.93h1.92c2.58 0 4.69 2.68 4.69 5.93v52.99c0 3.25-2.11 5.92-4.69 5.92zm-120.65-525.045h-10.84c-2.58 0-4.69-2.67-4.69-5.925v-52.988c0-3.255 2.11-5.925 4.69-5.925h10.84c2.57 0 4.69 2.67 4.69 5.925v52.988c0 3.255-2.12 5.925-4.69 5.925zm34.62 0h-1.92c-2.57 0-4.69-2.67-4.69-5.925v-52.988c0-3.255 2.12-5.925 4.69-5.925h1.92c2.58 0 4.69 2.67 4.69 5.925v52.988c0 3.255-2.05 5.925-4.69 5.925zm-34.62 75.019h-10.84c-2.58 0-4.69-2.67-4.69-5.925V651.22c0-3.254 2.11-5.925 4.69-5.925h10.84c2.57 0 4.69 2.671 4.69 5.925v52.989c0 3.255-2.12 5.925-4.69 5.925zm34.62 0h-1.92c-2.57 0-4.69-2.67-4.69-5.925V651.22c0-3.254 2.12-5.925 4.69-5.925h1.92c2.58 0 4.69 2.671 4.69 5.925v52.989c0 3.255-2.05 5.925-4.69 5.925zm-34.62 75.019h-10.84c-2.58 0-4.69-2.67-4.69-5.925v-52.989c0-3.254 2.11-5.925 4.69-5.925h10.84c2.57 0 4.69 2.671 4.69 5.925v52.989c0 3.255-2.12 5.925-4.69 5.925zm34.62 0h-1.92c-2.57 0-4.69-2.67-4.69-5.925v-52.989c0-3.254 2.12-5.925 4.69-5.925h1.92c2.58 0 4.69 2.671 4.69 5.925v52.989c0 3.255-2.05 5.925-4.69 5.925zm-34.62 75.018h-10.84c-2.58 0-4.69-2.67-4.69-5.924v-52.989c0-3.255 2.11-5.925 4.69-5.925h10.84c2.57 0 4.69 2.67 4.69 5.925v52.989c0 3.254-2.12 5.924-4.69 5.924zm34.62 0h-1.92c-2.57 0-4.69-2.67-4.69-5.924v-52.989c0-3.255 2.12-5.925 4.69-5.925h1.92c2.58 0 4.69 2.67 4.69 5.925v52.989c0 3.254-2.05 5.924-4.69 5.924zm-34.62 74.936h-10.84c-2.58 0-4.69-2.67-4.69-5.925v-52.989c0-3.254 2.11-5.925 4.69-5.925h10.84c2.57 0 4.69 2.671 4.69 5.925v52.989c0 3.338-2.12 5.925-4.69 5.925zm34.62 0h-1.92c-2.57 0-4.69-2.67-4.69-5.925v-52.989c0-3.254 2.12-5.925 4.69-5.925h1.92c2.58 0 4.69 2.671 4.69 5.925v52.989c0 3.338-2.05 5.925-4.69 5.925zm-34.62 75.023h-10.84c-2.58 0-4.69-2.67-4.69-5.93v-52.988c0-3.254 2.11-5.924 4.69-5.924h10.84c2.57 0 4.69 2.67 4.69 5.924v52.988c0 3.26-2.12 5.93-4.69 5.93zm34.62 0h-1.92c-2.57 0-4.69-2.67-4.69-5.93v-52.988c0-3.254 2.12-5.924 4.69-5.924h1.92c2.58 0 4.69 2.67 4.69 5.924v52.988c0 3.26-2.05 5.93-4.69 5.93zm-34.62 75.01h-10.84c-2.58 0-4.69-2.67-4.69-5.92v-52.99c0-3.25 2.11-5.92 4.69-5.92h10.84c2.57 0 4.69 2.67 4.69 5.92v52.99c0 3.25-2.12 5.92-4.69 5.92zm34.62 0h-1.92c-2.57 0-4.69-2.67-4.69-5.92v-52.99c0-3.25 2.12-5.92 4.69-5.92h1.92c2.58 0 4.69 2.67 4.69 5.92v52.99c0 3.25-2.05 5.92-4.69 5.92zm-34.62 75.02h-10.84c-2.58 0-4.69-2.67-4.69-5.92v-52.99c0-3.25 2.11-5.93 4.69-5.93h10.84c2.57 0 4.69 2.68 4.69 5.93v52.99c0 3.25-2.12 5.92-4.69 5.92zm34.62 0h-1.92c-2.57 0-4.69-2.67-4.69-5.92v-52.99c0-3.25 2.12-5.93 4.69-5.93h1.92c2.58 0 4.69 2.68 4.69 5.93v52.99c0 3.25-2.05 5.92-4.69 5.92z"
        ></path>
      <path d="M1301.36 1190.04h131.96c3.1 0 5.68-3.17 5.68-7.18V602.487c0-3.922-2.51-7.176-5.68-7.176h-131.96c-3.1 0-5.68 3.171-5.68 7.176v580.373c0 3.92 2.51 7.18 5.68 7.18z" fill="#D7D6DD"></path>
      <path d="M1433.32 595.311h-26.96c3.1 0 5.68 3.171 5.68 7.176v580.373c0 3.92-2.51 7.18-5.68 7.18h26.96c3.1 0 5.68-3.17 5.68-7.18V602.487c0-4.005-2.58-7.176-5.68-7.176z" fill="#9A999F"></path>
      <path d="M1303.28 630.109h16.85c1.72 0 3.04-1.753 3.04-3.839v-7.76c0-2.17-1.39-3.839-3.04-3.839h-16.85c-1.72 0-3.04 1.752-3.04 3.839v7.76c0 2.17 1.39 3.839 3.04 3.839zm82.4 0h16.85c1.71 0 3.04-1.753 3.04-3.839v-7.76c0-2.17-1.39-3.839-3.04-3.839h-16.85c-1.72 0-3.04 1.752-3.04 3.839v7.76c0 2.17 1.32 3.839 3.04 3.839zm-27.49 0h16.85c1.72 0 3.04-1.753 3.04-3.839v-7.76c0-2.17-1.39-3.839-3.04-3.839h-16.85c-1.72 0-3.04 1.752-3.04 3.839v7.76c0 2.17 1.39 3.839 3.04 3.839zm-27.42 0h16.85c1.71 0 3.04-1.753 3.04-3.839v-7.76c0-2.17-1.39-3.839-3.04-3.839h-16.85c-1.72 0-3.04 1.752-3.04 3.839v7.76c-.07 2.17 1.32 3.839 3.04 3.839zm-27.49 40.471h16.85c1.72 0 3.04-1.752 3.04-3.838v-7.761c0-2.169-1.39-3.838-3.04-3.838h-16.85c-1.72 0-3.04 1.752-3.04 3.838v7.761c0 2.086 1.39 3.838 3.04 3.838zm82.4 0h16.85c1.71 0 3.04-1.752 3.04-3.838v-7.761c0-2.169-1.39-3.838-3.04-3.838h-16.85c-1.72 0-3.04 1.752-3.04 3.838v7.761c0 2.086 1.32 3.838 3.04 3.838zm-27.49 0h16.85c1.72 0 3.04-1.752 3.04-3.838v-7.761c0-2.169-1.39-3.838-3.04-3.838h-16.85c-1.72 0-3.04 1.752-3.04 3.838v7.761c0 2.086 1.39 3.838 3.04 3.838zm-27.42 0h16.85c1.71 0 3.04-1.752 3.04-3.838v-7.761c0-2.169-1.39-3.838-3.04-3.838h-16.85c-1.72 0-3.04 1.752-3.04 3.838v7.761c-.07 2.086 1.32 3.838 3.04 3.838zm-27.49 40.388h16.85c1.72 0 3.04-1.752 3.04-3.838v-7.761c0-2.169-1.39-3.838-3.04-3.838h-16.85c-1.72 0-3.04 1.752-3.04 3.838v7.761c0 2.086 1.39 3.838 3.04 3.838zm82.4 0h16.85c1.71 0 3.04-1.752 3.04-3.838v-7.761c0-2.169-1.39-3.838-3.04-3.838h-16.85c-1.72 0-3.04 1.752-3.04 3.838v7.761c0 2.086 1.32 3.838 3.04 3.838zm-27.49 0h16.85c1.72 0 3.04-1.752 3.04-3.838v-7.761c0-2.169-1.39-3.838-3.04-3.838h-16.85c-1.72 0-3.04 1.752-3.04 3.838v7.761c0 2.086 1.39 3.838 3.04 3.838zm-27.42 0h16.85c1.71 0 3.04-1.752 3.04-3.838v-7.761c0-2.169-1.39-3.838-3.04-3.838h-16.85c-1.72 0-3.04 1.752-3.04 3.838v7.761c-.07 2.086 1.32 3.838 3.04 3.838zm-27.49 40.389h16.85c1.72 0 3.04-1.752 3.04-3.838v-7.761c0-2.17-1.39-3.839-3.04-3.839h-16.85c-1.72 0-3.04 1.753-3.04 3.839v7.761c0 2.086 1.39 3.838 3.04 3.838zm82.4 0h16.85c1.71 0 3.04-1.752 3.04-3.838v-7.761c0-2.17-1.39-3.839-3.04-3.839h-16.85c-1.72 0-3.04 1.753-3.04 3.839v7.761c0 2.086 1.32 3.838 3.04 3.838zm-27.49 0h16.85c1.72 0 3.04-1.752 3.04-3.838v-7.761c0-2.17-1.39-3.839-3.04-3.839h-16.85c-1.72 0-3.04 1.753-3.04 3.839v7.761c0 2.086 1.39 3.838 3.04 3.838zm-27.42 0h16.85c1.71 0 3.04-1.752 3.04-3.838v-7.761c0-2.17-1.39-3.839-3.04-3.839h-16.85c-1.72 0-3.04 1.753-3.04 3.839v7.761c-.07 2.086 1.32 3.838 3.04 3.838zm-27.49 40.389h16.85c1.72 0 3.04-1.753 3.04-3.839v-7.76c0-2.17-1.39-3.839-3.04-3.839h-16.85c-1.72 0-3.04 1.752-3.04 3.839v7.76c0 2.17 1.39 3.839 3.04 3.839zm82.4 0h16.85c1.71 0 3.04-1.753 3.04-3.839v-7.76c0-2.17-1.39-3.839-3.04-3.839h-16.85c-1.72 0-3.04 1.752-3.04 3.839v7.76c0 2.17 1.32 3.839 3.04 3.839zm-27.49 0h16.85c1.72 0 3.04-1.753 3.04-3.839v-7.76c0-2.17-1.39-3.839-3.04-3.839h-16.85c-1.72 0-3.04 1.752-3.04 3.839v7.76c0 2.17 1.39 3.839 3.04 3.839zm-27.42 0h16.85c1.71 0 3.04-1.753 3.04-3.839v-7.76c0-2.17-1.39-3.839-3.04-3.839h-16.85c-1.72 0-3.04 1.752-3.04 3.839v7.76c-.07 2.17 1.32 3.839 3.04 3.839zm-27.49 40.472h16.85c1.72 0 3.04-1.753 3.04-3.839v-7.76c0-2.17-1.39-3.839-3.04-3.839h-16.85c-1.72 0-3.04 1.752-3.04 3.839v7.76c0 2.086 1.39 3.839 3.04 3.839zm82.4 0h16.85c1.71 0 3.04-1.753 3.04-3.839v-7.76c0-2.17-1.39-3.839-3.04-3.839h-16.85c-1.72 0-3.04 1.752-3.04 3.839v7.76c0 2.086 1.32 3.839 3.04 3.839zm-27.49 0h16.85c1.72 0 3.04-1.753 3.04-3.839v-7.76c0-2.17-1.39-3.839-3.04-3.839h-16.85c-1.72 0-3.04 1.752-3.04 3.839v7.76c0 2.086 1.39 3.839 3.04 3.839zm-27.42 0h16.85c1.71 0 3.04-1.753 3.04-3.839v-7.76c0-2.17-1.39-3.839-3.04-3.839h-16.85c-1.72 0-3.04 1.752-3.04 3.839v7.76c-.07 2.086 1.32 3.839 3.04 3.839zm-27.49 40.388h16.85c1.72 0 3.04-1.753 3.04-3.839v-7.76c0-2.17-1.39-3.839-3.04-3.839h-16.85c-1.72 0-3.04 1.753-3.04 3.839v7.76c0 2.086 1.39 3.839 3.04 3.839zm82.4 0h16.85c1.71 0 3.04-1.753 3.04-3.839v-7.76c0-2.17-1.39-3.839-3.04-3.839h-16.85c-1.72 0-3.04 1.753-3.04 3.839v7.76c0 2.086 1.32 3.839 3.04 3.839zm-27.49 0h16.85c1.72 0 3.04-1.753 3.04-3.839v-7.76c0-2.17-1.39-3.839-3.04-3.839h-16.85c-1.72 0-3.04 1.753-3.04 3.839v7.76c0 2.086 1.39 3.839 3.04 3.839zm-27.42 0h16.85c1.71 0 3.04-1.753 3.04-3.839v-7.76c0-2.17-1.39-3.839-3.04-3.839h-16.85c-1.72 0-3.04 1.753-3.04 3.839v7.76c-.07 2.086 1.32 3.839 3.04 3.839zm-27.49 40.388h16.85c1.72 0 3.04-1.753 3.04-3.839v-7.76c0-2.17-1.39-3.839-3.04-3.839h-16.85c-1.72 0-3.04 1.752-3.04 3.839v7.76c0 2.086 1.39 3.839 3.04 3.839zm82.4 0h16.85c1.71 0 3.04-1.753 3.04-3.839v-7.76c0-2.17-1.39-3.839-3.04-3.839h-16.85c-1.72 0-3.04 1.752-3.04 3.839v7.76c0 2.086 1.32 3.839 3.04 3.839zm-27.49 0h16.85c1.72 0 3.04-1.753 3.04-3.839v-7.76c0-2.17-1.39-3.839-3.04-3.839h-16.85c-1.72 0-3.04 1.752-3.04 3.839v7.76c0 2.086 1.39 3.839 3.04 3.839zm-27.42 0h16.85c1.71 0 3.04-1.753 3.04-3.839v-7.76c0-2.17-1.39-3.839-3.04-3.839h-16.85c-1.72 0-3.04 1.752-3.04 3.839v7.76c-.07 2.086 1.32 3.839 3.04 3.839zm-27.49 40.388h16.85c1.72 0 3.04-1.752 3.04-3.838v-7.761c0-2.17-1.39-3.838-3.04-3.838h-16.85c-1.72 0-3.04 1.752-3.04 3.838v7.761c0 2.169 1.39 3.838 3.04 3.838zm82.4 0h16.85c1.71 0 3.04-1.752 3.04-3.838v-7.761c0-2.17-1.39-3.838-3.04-3.838h-16.85c-1.72 0-3.04 1.752-3.04 3.838v7.761c0 2.169 1.32 3.838 3.04 3.838zm-27.49 0h16.85c1.72 0 3.04-1.752 3.04-3.838v-7.761c0-2.17-1.39-3.838-3.04-3.838h-16.85c-1.72 0-3.04 1.752-3.04 3.838v7.761c0 2.169 1.39 3.838 3.04 3.838zm-27.42 0h16.85c1.71 0 3.04-1.752 3.04-3.838v-7.761c0-2.17-1.39-3.838-3.04-3.838h-16.85c-1.72 0-3.04 1.752-3.04 3.838v7.761c-.07 2.169 1.32 3.838 3.04 3.838zm-27.49 40.472h16.85c1.72 0 3.04-1.752 3.04-3.839v-7.76c0-2.17-1.39-3.839-3.04-3.839h-16.85c-1.72 0-3.04 1.752-3.04 3.839v7.76c0 2.087 1.39 3.839 3.04 3.839zm82.4 0h16.85c1.71 0 3.04-1.752 3.04-3.839v-7.76c0-2.17-1.39-3.839-3.04-3.839h-16.85c-1.72 0-3.04 1.752-3.04 3.839v7.76c0 2.087 1.32 3.839 3.04 3.839zm-27.49 0h16.85c1.72 0 3.04-1.752 3.04-3.839v-7.76c0-2.17-1.39-3.839-3.04-3.839h-16.85c-1.72 0-3.04 1.752-3.04 3.839v7.76c0 2.087 1.39 3.839 3.04 3.839zm-27.42 0h16.85c1.71 0 3.04-1.752 3.04-3.839v-7.76c0-2.17-1.39-3.839-3.04-3.839h-16.85c-1.72 0-3.04 1.752-3.04 3.839v7.76c-.07 2.087 1.32 3.839 3.04 3.839zm-27.49 40.386h16.85c1.72 0 3.04-1.75 3.04-3.84v-7.76c0-2.17-1.39-3.84-3.04-3.84h-16.85c-1.72 0-3.04 1.76-3.04 3.84v7.76c0 2.09 1.39 3.84 3.04 3.84zm82.4 0h16.85c1.71 0 3.04-1.75 3.04-3.84v-7.76c0-2.17-1.39-3.84-3.04-3.84h-16.85c-1.72 0-3.04 1.76-3.04 3.84v7.76c0 2.09 1.32 3.84 3.04 3.84zm-27.49 0h16.85c1.72 0 3.04-1.75 3.04-3.84v-7.76c0-2.17-1.39-3.84-3.04-3.84h-16.85c-1.72 0-3.04 1.76-3.04 3.84v7.76c0 2.09 1.39 3.84 3.04 3.84zm-27.42 0h16.85c1.71 0 3.04-1.75 3.04-3.84v-7.76c0-2.17-1.39-3.84-3.04-3.84h-16.85c-1.72 0-3.04 1.76-3.04 3.84v7.76c-.07 2.09 1.32 3.84 3.04 3.84zm-27.49 40.39h16.85c1.72 0 3.04-1.75 3.04-3.84v-7.76c0-2.17-1.39-3.84-3.04-3.84h-16.85c-1.72 0-3.04 1.76-3.04 3.84v7.76c0 2.09 1.39 3.84 3.04 3.84zm82.4 0h16.85c1.71 0 3.04-1.75 3.04-3.84v-7.76c0-2.17-1.39-3.84-3.04-3.84h-16.85c-1.72 0-3.04 1.76-3.04 3.84v7.76c0 2.09 1.32 3.84 3.04 3.84zm-27.49 0h16.85c1.72 0 3.04-1.75 3.04-3.84v-7.76c0-2.17-1.39-3.84-3.04-3.84h-16.85c-1.72 0-3.04 1.76-3.04 3.84v7.76c0 2.09 1.39 3.84 3.04 3.84zm-27.42 0h16.85c1.71 0 3.04-1.75 3.04-3.84v-7.76c0-2.17-1.39-3.84-3.04-3.84h-16.85c-1.72 0-3.04 1.76-3.04 3.84v7.76c-.07 2.09 1.32 3.84 3.04 3.84zm-27.49 40.39h16.85c1.72 0 3.04-1.75 3.04-3.84v-7.76c0-2.17-1.39-3.84-3.04-3.84h-16.85c-1.72 0-3.04 1.75-3.04 3.84v7.76c0 2.17 1.39 3.84 3.04 3.84zm82.4 0h16.85c1.71 0 3.04-1.75 3.04-3.84v-7.76c0-2.17-1.39-3.84-3.04-3.84h-16.85c-1.72 0-3.04 1.75-3.04 3.84v7.76c0 2.17 1.32 3.84 3.04 3.84zm-27.49 0h16.85c1.72 0 3.04-1.75 3.04-3.84v-7.76c0-2.17-1.39-3.84-3.04-3.84h-16.85c-1.72 0-3.04 1.75-3.04 3.84v7.76c0 2.17 1.39 3.84 3.04 3.84zm-27.42 0h16.85c1.71 0 3.04-1.75 3.04-3.84v-7.76c0-2.17-1.39-3.84-3.04-3.84h-16.85c-1.72 0-3.04 1.75-3.04 3.84v7.76c-.07 2.17 1.32 3.84 3.04 3.84zm-27.49 40.39h16.85c1.72 0 3.04-1.75 3.04-3.84v-7.76c0-2.17-1.39-3.84-3.04-3.84h-16.85c-1.72 0-3.04 1.75-3.04 3.84v7.76c0 2.17 1.39 3.84 3.04 3.84zm82.4 0h16.85c1.71 0 3.04-1.75 3.04-3.84v-7.76c0-2.17-1.39-3.84-3.04-3.84h-16.85c-1.72 0-3.04 1.75-3.04 3.84v7.76c0 2.17 1.32 3.84 3.04 3.84zm-27.49 0h16.85c1.72 0 3.04-1.75 3.04-3.84v-7.76c0-2.17-1.39-3.84-3.04-3.84h-16.85c-1.72 0-3.04 1.75-3.04 3.84v7.76c0 2.17 1.39 3.84 3.04 3.84zm-27.42 0h16.85c1.71 0 3.04-1.75 3.04-3.84v-7.76c0-2.17-1.39-3.84-3.04-3.84h-16.85c-1.72 0-3.04 1.75-3.04 3.84v7.76c-.07 2.17 1.32 3.84 3.04 3.84z"
        ></path>
    </g>
  </symbol>
  <symbol viewBox="0 0 50 50" fill="none" xmlns="http://www.w3.org/2000/svg" id="section-button">
    <path d="M25 33.333L33.333 25 25 16.667M16.667 25h16.666" stroke="#3A407C" stroke-linecap="round" stroke-linejoin="round"></path>
  </symbol>
  <symbol viewBox="0 0 50 50" fill="none" xmlns="http://www.w3.org/2000/svg" id="about-button">
    <path d="M25 45.8333C13.4941 45.8333 4.16671 36.5059 4.16671 25C4.16671 13.494 13.4941 4.16663 25 4.16663C36.506 4.16663 45.8334 13.494 45.8334 25C45.8334 36.5059 36.506 45.8333 25 45.8333Z" stroke="#474B73" stroke-linecap="round" stroke-linejoin="round"/>
    <path d="M25 33.3333L16.6667 25L25 16.6666" stroke="#474B73" stroke-linecap="round" stroke-linejoin="round"/>
    <path d="M33.3334 25H16.6667" stroke="#474B73" stroke-linecap="round" stroke-linejoin="round"/>
  </symbol>
  <symbol id="isense-button" viewBox="0 0 50 50" fill="none" xmlns="http://www.w3.org/2000/svg">
    <path d="M25 45.8334C36.5059 45.8334 45.8333 36.506 45.8333 25.0001C45.8333 13.4941 36.5059 4.16675 25 4.16675C13.494 4.16675 4.16663 13.4941 4.16663 25.0001C4.16663 36.506 13.494 45.8334 25 45.8334Z" stroke="#474B73" stroke-linecap="round" stroke-linejoin="round"/>
    <path d="M25 33.3334L33.3333 25.0001L25 16.6667" stroke="#474B73" stroke-linecap="round" stroke-linejoin="round"/>
    <path d="M16.6666 25H33.3333" stroke="#474B73" stroke-linecap="round" stroke-linejoin="round"/>
  </symbol>
  <symbol id="twitter" viewBox="0 0 50 50" fill="none" xmlns="http://www.w3.org/2000/svg">
  <path d="M45.3124 13.4151C43.8182 14.0596 42.1923 14.5235 40.5175 14.7041C42.2563 13.6711 43.5584 12.0391 44.1796 10.1143C42.5479 11.0849 40.7604 11.7656 38.8964 12.126C38.1173 11.2931 37.175 10.6296 36.1283 10.1768C35.0816 9.72402 33.9528 9.49164 32.8124 9.49416C28.1981 9.49416 24.4872 13.2344 24.4872 17.8242C24.4872 18.4688 24.5653 19.1133 24.6923 19.7334C17.7831 19.3721 11.621 16.0713 7.52429 11.0176C6.77783 12.2926 6.38666 13.7443 6.39148 15.2217C6.39148 18.1123 7.86121 20.6612 10.1024 22.1602C8.78164 22.1082 7.49179 21.7451 6.33777 21.1006V21.2031C6.33777 25.251 9.1991 28.6055 13.0126 29.377C12.2966 29.563 11.56 29.6581 10.8202 29.6602C10.2782 29.6602 9.7655 29.6065 9.24792 29.5332C10.3026 32.834 13.3739 35.2315 17.0311 35.3096C14.1698 37.5508 10.5858 38.8692 6.69421 38.8692C5.99597 38.8692 5.35144 38.8447 4.6825 38.7666C8.3739 41.1348 12.7538 42.502 17.4706 42.502C32.7831 42.502 41.162 29.8164 41.162 18.8057C41.162 18.4444 41.162 18.083 41.1376 17.7217C42.7587 16.5352 44.1796 15.0655 45.3124 13.4151Z" fill="white"/>
</symbol>
<symbol id="github" viewBox="0 0 50 50" fill="none" xmlns="http://www.w3.org/2000/svg">
<path d="M24.9805 4.72363C12.9053 4.71875 3.125 14.4941 3.125 26.5596C3.125 36.1006 9.24316 44.2109 17.7637 47.1895C18.9111 47.4775 18.7354 46.6621 18.7354 46.1055V42.3213C12.1094 43.0977 11.8408 38.7129 11.3965 37.9805C10.498 36.4473 8.37402 36.0566 9.00879 35.3242C10.5176 34.5479 12.0557 35.5195 13.8379 38.1514C15.127 40.0605 17.6416 39.7383 18.916 39.4209C19.1943 38.2734 19.79 37.248 20.6104 36.4521C13.7451 35.2217 10.8838 31.0322 10.8838 26.0518C10.8838 23.6348 11.6797 21.4131 13.2422 19.6211C12.2461 16.667 13.335 14.1377 13.4814 13.7617C16.3184 13.5078 19.2676 15.793 19.4971 15.9736C21.1084 15.5391 22.9492 15.3096 25.0098 15.3096C27.0801 15.3096 28.9258 15.5488 30.5518 15.9883C31.1035 15.5684 33.8379 13.6055 36.4746 13.8447C36.6162 14.2207 37.6807 16.6914 36.7432 19.6064C38.3252 21.4033 39.1309 23.6445 39.1309 26.0664C39.1309 31.0566 36.25 35.251 29.3652 36.4619C29.9549 37.0418 30.4232 37.7335 30.7426 38.4964C31.062 39.2593 31.2262 40.0782 31.2256 40.9053V46.3984C31.2646 46.8379 31.2256 47.2725 31.958 47.2725C40.6055 44.3574 46.8311 36.1885 46.8311 26.5645C46.8311 14.4941 37.0459 4.72363 24.9805 4.72363Z" fill="white"/>
</symbol>
</svg>