<svg width="50" height="50" viewBox="0 0 50 50" fill="none" xmlns="http://www.w3.org/2000/svg">
<path d="M45.3124 12.417C43.8182 13.0615 42.1923 13.5254 40.5175 13.7061C42.2563 12.673 43.5584 11.041 44.1796 9.11623C42.5479 10.0869 40.7604 10.7675 38.8964 11.1279C38.1173 10.2951 37.175 9.63156 36.1283 9.17877C35.0816 8.72597 33.9528 8.49359 32.8124 8.49611C28.1981 8.49611 24.4872 12.2363 24.4872 16.8262C24.4872 17.4707 24.5653 18.1153 24.6923 18.7354C17.7831 18.374 11.621 15.0733 7.52429 10.0196C6.77783 11.2945 6.38666 12.7462 6.39148 14.2237C6.39148 17.1143 7.86121 19.6631 10.1024 21.1621C8.78164 21.1101 7.49179 20.7471 6.33777 20.1026V20.2051C6.33777 24.253 9.1991 27.6074 13.0126 28.3789C12.2966 28.5649 11.56 28.6601 10.8202 28.6621C10.2782 28.6621 9.7655 28.6084 9.24792 28.5352C10.3026 31.836 13.3739 34.2334 17.0311 34.3115C14.1698 36.5528 10.5858 37.8711 6.69421 37.8711C5.99597 37.8711 5.35144 37.8467 4.6825 37.7686C8.3739 40.1367 12.7538 41.5039 17.4706 41.5039C32.7831 41.5039 41.162 28.8184 41.162 17.8076C41.162 17.4463 41.162 17.085 41.1376 16.7237C42.7587 15.5371 44.1796 14.0674 45.3124 12.417Z" fill="#3A407C"/>
</svg>
