<svg width="50" height="51" viewBox="0 0 50 51" fill="none" xmlns="http://www.w3.org/2000/svg">
<path d="M45.3124 13.4151C43.8182 14.0596 42.1923 14.5235 40.5175 14.7041C42.2563 13.6711 43.5584 12.0391 44.1796 10.1143C42.5479 11.0849 40.7604 11.7656 38.8964 12.126C38.1173 11.2931 37.175 10.6296 36.1283 10.1768C35.0816 9.72402 33.9528 9.49164 32.8124 9.49416C28.1981 9.49416 24.4872 13.2344 24.4872 17.8242C24.4872 18.4688 24.5653 19.1133 24.6923 19.7334C17.7831 19.3721 11.621 16.0713 7.52429 11.0176C6.77783 12.2926 6.38666 13.7443 6.39148 15.2217C6.39148 18.1123 7.86121 20.6612 10.1024 22.1602C8.78164 22.1082 7.49179 21.7451 6.33777 21.1006V21.2031C6.33777 25.251 9.1991 28.6055 13.0126 29.377C12.2966 29.563 11.56 29.6581 10.8202 29.6602C10.2782 29.6602 9.7655 29.6065 9.24792 29.5332C10.3026 32.834 13.3739 35.2315 17.0311 35.3096C14.1698 37.5508 10.5858 38.8692 6.69421 38.8692C5.99597 38.8692 5.35144 38.8447 4.6825 38.7666C8.3739 41.1348 12.7538 42.502 17.4706 42.502C32.7831 42.502 41.162 29.8164 41.162 18.8057C41.162 18.4444 41.162 18.083 41.1376 17.7217C42.7587 16.5352 44.1796 15.0655 45.3124 13.4151Z" fill="white"/>
</svg>
